<svg width="1200" height="800" viewBox="0 0 1200 800" fill="none" xmlns="http://www.w3.org/2000/svg">
<g clip-path="url(#clip0_3_307)">
<rect width="1200" height="800" rx="40" fill="white"/>
<mask id="mask0_3_307" style="mask-type:luminance" maskUnits="userSpaceOnUse" x="0" y="0" width="1200" height="800">
<path d="M1200 0H0V800H1200V0Z" fill="white"/>
</mask>
<g mask="url(#mask0_3_307)">
<path d="M1200 0H0V800H1200V0Z" fill="#E0F7FF"/>
</g>
<mask id="mask1_3_307" style="mask-type:luminance" maskUnits="userSpaceOnUse" x="0" y="0" width="1200" height="800">
<path d="M1200 0H0V800H1200V0Z" fill="white"/>
</mask>
<g mask="url(#mask1_3_307)">
<path d="M5.39999 978.1C33.2 880.3 142.4 791.2 254.7 774.5C307.9 766.6 362.6 772.8 413.2 749.8C468 724.8 502.5 671.9 519.4 621.8C536.3 571.7 540.5 521 559.3 471.1C578.1 421.2 616.9 369.1 673.3 348.7C712.8 334.4 754.1 338 794.1 326.7C849 311.2 894.5 269.7 929.1 226.7C963.6 183.7 991.1 137 1030 96.6C1087.4 37 1169 -5.8 1250.7 -19.1" stroke="#C7E7F2" stroke-miterlimit="10"/>
<path d="M-4.40002 957.5C16.4 888.9 76.5 824.7 149.5 786.4C180 770.4 212.9 758.9 246.1 753.8C279.3 748.7 313.1 749.2 345.8 745.5C365.8 743.3 385.3 739.5 404.2 731.8C436.7 718.5 462.1 695.7 481.6 668.6C494.5 650.7 504.5 631 511.9 611.6C521.4 586.5 527.5 560.8 533.9 535.2C539.9 511.3 546.1 487.3 555.7 463.6C564 443.2 575.6 422.5 590.4 403.9C611.4 377.6 638.8 355.6 671.8 344.3C693.6 336.9 715.8 334.8 738.1 332.7C756.4 331 774.6 329.3 792.6 324.8C825.2 316.5 854.5 299.6 880.4 278.6C898.1 264.3 914.2 248.1 928.6 231.5C949.7 207.2 968.3 181.4 988.4 156.1C1002 139 1016.1 122 1032.1 106C1055.3 82.7 1081.9 61.7 1110.6 44C1154.4 16.8 1202.9 -2.9 1251.3 -12.4" stroke="#C7E7F2" stroke-miterlimit="10"/>
<path d="M-14.2 937C7.79999 868.8 68 804.9 140.9 766.3C171.4 750.1 204.1 738.4 237.4 733.1C270.6 727.8 304.7 728.1 337.3 725.2C357.3 723.4 376.6 720.5 395.2 713.8C427.3 702.2 452.3 681.7 472.5 656.2C485.8 639.4 496.3 620.4 504.3 601.5C514.6 577.1 521.4 552 528.5 526.8C535.1 503.3 541.9 479.6 552 456.3C560.7 436.2 572.7 415.8 587.9 397.6C609.5 371.9 637.2 350.7 670.3 340.1C692.2 333.1 714.5 331.3 736.7 329.7C755 328.4 773.2 327.1 791.2 323C823.8 315.7 853.1 300.2 879.3 280.6C897.1 267.2 913.5 252.1 928.2 236.4C949.8 213.5 969 188.8 989.7 164.3C1003.7 147.7 1018.2 131.2 1034.3 115.4C1057.8 92.5 1084.6 71.5 1113.2 53.5C1156.9 25.9 1204.5 5.2 1252.2 -5.7" stroke="#C7E7F2" stroke-miterlimit="10"/>
<path d="M-24 916.4C-0.700001 848.5 59.6 785 132.3 746.1C162.7 729.8 195.4 717.8 228.7 712.3C262 706.8 296.2 707 328.7 704.9C348.8 703.6 367.8 701.5 386.1 695.8C417.7 685.9 442.5 667.8 463.4 643.7C477.1 627.9 488.1 609.6 496.7 591.3C507.7 567.7 515.4 543 523 518.2C530.3 495 537.6 471.7 548.2 448.7C557.4 428.8 569.8 408.9 585.3 391.1C607.4 366 635.5 345.7 668.7 335.7C690.6 329.2 713 327.7 735.2 326.4C753.5 325.4 771.7 324.5 789.6 321C822.1 314.7 851.6 300.6 877.9 282.5C895.9 270.1 912.5 256 927.6 241.2C949.6 219.6 969.5 196.1 990.8 172.4C1005.2 156.4 1020 140.3 1036.3 124.7C1060.2 102.1 1087.1 81.2 1115.5 63C1159 35 1205.9 13.2 1252.7 1" stroke="#C7E7F2" stroke-miterlimit="10"/>
<path d="M-33.8 895.8C-9.29999 828.2 51.1 765.1 123.8 725.9C154.2 709.5 186.8 697.3 220.2 691.6C253.5 685.9 288 686.1 320.3 684.6C340.4 683.7 359.2 682.4 377.2 677.7C408.3 669.6 432.9 653.8 454.4 631.2C468.5 616.5 480.1 598.9 489.2 581C500.9 558.1 509.3 533.9 517.7 509.6C525.5 486.8 533.5 463.7 544.6 441.2C554.2 421.6 567 402 582.9 384.7C605.5 360.2 634 340.7 667.3 331.3C689.3 325.2 711.7 324.1 733.8 323.2C752.1 322.5 770.2 322.1 788.1 319.1C820.6 313.8 850.1 301.1 876.7 284.4C894.8 273 911.7 259.9 927.2 246C949.7 225.8 970.1 203.4 992 180.5C1006.7 165 1021.9 149.3 1038.5 134.1C1062.8 111.9 1089.8 90.9 1118 72.5C1161.4 44 1207.5 21.3 1253.5 7.7" stroke="#C7E7F2" stroke-miterlimit="10"/>
<path d="M-43.6 875.2C-17.9 807.9 42.6 745.2 115.2 705.7C145.5 689.2 178.1 676.7 211.5 670.8C244.9 664.9 279.5 665 311.7 664.3C331.8 663.9 350.4 663.4 368.2 659.7C398.9 653.3 423.1 639.8 445.4 618.8C459.8 605.1 472 588.3 481.7 570.9C494.2 548.8 503.4 525 512.4 501.2C520.9 478.8 529.4 456 541 433.8C551.1 414.5 564.3 395.2 580.5 378.3C603.7 354.4 632.5 335.7 665.9 327C688 321.3 710.4 320.6 732.5 320.1C750.8 319.8 768.9 319.7 786.8 317.3C819.2 313 848.8 301.7 875.6 286.4C893.9 276 911 263.9 926.8 250.9C949.8 232 970.8 210.8 993.3 188.7C1008.4 173.8 1023.9 158.5 1040.7 143.5C1065.4 121.6 1092.5 100.7 1120.5 82.1C1163.7 53.2 1209 29.5 1254.3 14.5" stroke="#C7E7F2" stroke-miterlimit="10"/>
<path d="M-53.5 854.7C-26.6 787.8 34 725.4 106.6 685.6C136.9 669 169.3 656.2 202.8 650.2C236.2 644.2 271.1 643.6 303.1 644.1C323.2 644.5 341.6 644.5 359.1 641.8C389.3 637.1 413.2 626 436.2 606.4C451 593.8 463.7 577.6 474 560.8C487.2 539.5 497.2 516.2 506.8 492.7C515.9 470.7 525 448.2 537.2 426.4C547.8 407.4 561.3 388.4 577.9 372C601.6 348.6 630.8 330.8 664.3 322.8C686.5 317.6 708.9 317 731 317.1C749.3 317.2 767.4 317.4 785.2 315.5C817.6 312.1 847.2 302.3 874.3 288.5C892.7 279.1 910.2 268 926.3 255.9C949.7 238.3 971.4 218.3 994.5 197.1C1010 182.8 1025.8 167.8 1042.8 153.1C1067.8 131.5 1095.1 110.6 1122.9 91.8C1166 62.4 1210.5 37.7 1254.9 21.4" stroke="#C7E7F2" stroke-miterlimit="10"/>
<path d="M-63.3 834.1C-35.2 767.5 25.6 705.5 98 665.4C128.2 648.7 160.6 635.6 194.2 629.4C227.7 623.2 262.8 623 294.6 623.8C314.8 624.3 332.8 625.5 350.1 623.7C379.8 620.7 403.4 612 427.1 593.9C442.3 582.3 455.4 566.9 466.5 550.6C480.4 530 491.2 507.2 501.5 484.2C511.2 462.5 521 440.4 533.6 418.9C544.6 400.1 558.5 381.5 575.5 365.5C599.7 342.7 629.3 325.7 662.9 318.3C685.2 313.5 707.7 313.4 729.7 313.8C748 314.1 766 314.9 783.8 313.5C816.1 311.1 845.8 302.7 873.1 290.3C891.6 281.9 909.4 271.8 925.9 260.6C949.8 244.4 972 225.5 995.7 205.1C1011.6 191.3 1027.7 176.8 1044.9 162.4C1070.3 141.2 1097.7 120.3 1125.3 101.3C1168.3 71.5 1212 45.8 1255.6 28.1" stroke="#C7E7F2" stroke-miterlimit="10"/>
<path d="M-73.1 813.5C-43.7 747.2 17.1 685.7 89.4 645.1C119.5 628.2 151.9 615 185.5 608.5C219.1 602.1 254.3 601.8 286 603.4C306.2 604.4 324 606.3 341 605.6C370.3 604.4 393.5 598 418 581.3C433.5 570.8 447.2 556 458.9 540.3C473.5 520.5 485.1 498.1 496.1 475.6C506.5 454.3 516.8 432.5 529.9 411.4C541.4 392.9 555.7 374.7 573 359.1C597.8 336.9 627.8 320.7 661.4 314C683.8 309.6 706.3 309.8 728.2 310.7C746.5 311.4 764.5 312.5 782.2 311.7C814.5 310.2 844.1 303.3 871.8 292.3C890.5 284.9 908.5 275.8 925.3 265.4C949.6 250.5 972.5 232.8 996.8 213.2C1013.1 200 1029.5 185.8 1047 171.7C1072.7 150.8 1100.2 130 1127.7 110.7C1170.5 80.5 1213.4 53.8 1256.2 34.6" stroke="#C7E7F2" stroke-miterlimit="10"/>
<path d="M-82.9 792.9C-52.3 726.9 8.59999 665.8 80.9 624.9C111 607.9 143.3 594.4 176.9 587.8C210.5 581.2 246 580.9 277.5 583.1C297.7 584.5 315.3 587.3 332 587.6C360.8 588.1 383.7 584 408.9 568.9C424.7 559.4 439 545.4 451.3 530.1C466.6 511 479 489.1 490.7 467C501.7 446.1 512.6 424.6 526.2 403.9C538.2 385.7 552.8 367.8 570.5 352.7C595.8 331.1 626.2 315.7 659.9 309.6C682.3 305.6 704.9 306.2 726.8 307.4C745.1 308.4 763.1 309.9 780.8 309.7C813.1 309.2 842.7 303.7 870.6 294.1C889.4 287.7 907.6 279.6 924.9 270.1C949.7 256.6 973.2 240 998 221.2C1014.7 208.5 1031.5 194.8 1049.1 180.9C1075.2 160.4 1102.8 139.5 1130.2 120.1C1172.9 89.4 1215 61.7 1257 41.2" stroke="#C7E7F2" stroke-miterlimit="10"/>
<path d="M-92.7 772.3C-60.9 706.7 0.0999908 645.9 72.3 604.7C102.3 587.6 134.5 573.8 168.3 567C202 560.2 237.6 559.8 269 562.8C289.2 564.7 306.6 568.3 323.1 569.5C351.5 571.7 373.9 570 399.9 556.4C416 548 430.9 534.6 443.8 519.9C459.8 501.6 473 480.1 485.3 458.5C497 438 508.4 416.8 522.5 396.4C534.9 378.5 549.9 360.9 568 346.2C593.8 325.1 624.6 310.6 658.3 305.2C680.8 301.6 703.4 302.6 725.3 304.2C743.6 305.6 761.5 307.5 779.2 307.7C811.4 308.2 841.1 304.1 869.3 296C888.2 290.5 906.7 283.5 924.4 274.9C949.6 262.7 973.7 247.3 999.2 229.4C1016.3 217.3 1033.4 204 1051.2 190.3C1077.7 170.1 1105.5 149.3 1132.6 129.6C1175.2 98.6 1216.5 69.8 1257.6 47.9" stroke="#C7E7F2" stroke-miterlimit="10"/>
<path d="M-102.5 751.8C-69.5 686.5 -8.40001 626.1 63.8 584.6C93.8 567.4 125.9 553.4 159.7 546.4C193.4 539.4 229.3 539 260.5 542.6C280.8 545 297.9 549.3 314.1 551.6C342 555.5 364.1 556.1 390.9 544C407.4 536.6 422.8 524 436.3 509.8C453 492.2 467.1 471.3 480 450C492.3 429.8 504.3 408.9 518.9 389C531.8 371.4 547.2 354.2 565.6 339.9C592 319.4 623.1 305.7 656.9 301C679.5 297.9 702.1 299.1 724 301.2C742.3 302.9 760.2 305.2 777.8 306C810 307.5 839.7 304.8 868.1 298.1C887.2 293.6 905.9 287.5 924 279.9C949.7 269 974.4 254.8 1000.5 237.7C1017.9 226.2 1035.4 213.2 1053.5 199.9C1080.4 180 1108.2 159.3 1135.2 139.3C1177.7 107.8 1218.1 78.1 1258.5 54.8" stroke="#C7E7F2" stroke-miterlimit="10"/>
<path d="M-112.3 731.2C-78.1 666.2 -16.8 606.2 55.2 564.4C85.1 547.1 117.2 532.8 151 525.6C184.8 518.4 220.9 517.9 251.9 522.3C272.2 525.2 289.1 530.3 305 533.5C332.4 539.1 354.1 542.1 381.7 531.5C398.5 525.1 414.4 513.2 428.6 499.6C446 482.8 460.9 462.3 474.5 441.5C487.4 421.7 500.1 401.1 515.1 381.5C528.5 364.1 544.2 347.3 563 333.4C589.9 313.5 621.4 300.6 655.3 296.5C678 293.8 700.7 295.4 722.5 297.9C740.8 300 758.7 302.7 776.2 304C808.3 306.4 838.1 305.1 866.8 299.9C886 296.4 905 291.3 923.4 284.6C949.5 275.1 974.9 262 1001.5 245.7C1019.3 234.7 1037.1 222.2 1055.4 209.1C1082.6 189.6 1110.6 168.9 1137.4 148.7C1179.7 116.8 1219.4 86 1258.9 61.4" stroke="#C7E7F2" stroke-miterlimit="10"/>
<path d="M-122.1 710.6C-86.7 646 -25.3 586.3 46.6 544.2C76.5 526.8 108.5 512.2 142.4 504.8C176.2 497.4 212.5 496.9 243.4 502C263.7 505.3 280.4 511.3 296 515.5C323 522.9 344.2 528.1 372.7 519.1C389.8 513.7 406.3 502.6 421.1 489.4C439.2 473.3 454.9 453.3 469.1 433C482.7 413.6 495.9 393.3 511.5 374.1C525.3 357 541.5 340.5 560.6 327.1C588.1 307.8 619.9 295.7 653.9 292.3C676.7 290 699.4 292 721.1 294.9C739.4 297.3 757.3 300.4 774.8 302.3C806.9 305.7 836.7 305.8 865.6 302C884.9 299.5 904.2 295.4 923 289.6C949.5 281.4 975.5 269.5 1002.8 254C1021 243.6 1039.1 231.4 1057.6 218.6C1085.2 199.4 1113.3 178.7 1139.9 158.3C1182.1 126 1221 94.2 1259.7 68.2" stroke="#C7E7F2" stroke-miterlimit="10"/>
<path d="M-132 690C-95.3 625.7 -33.9 566.4 38 524C67.8 506.4 99.7 491.6 133.7 484.1C167.6 476.5 204.1 475.9 234.8 481.7C255.1 485.5 271.6 492.2 286.9 497.5C313.4 506.6 334.2 514.1 363.5 506.6C380.9 502.2 398 491.8 413.5 479.2C432.3 463.9 448.8 444.3 463.7 424.4C477.9 405.4 491.7 385.4 507.8 366.5C522.1 349.7 538.6 333.5 558.1 320.6C586.1 301.9 618.3 290.6 652.4 287.9C675.3 286.1 698 288.3 719.7 291.6C738 294.4 755.8 297.9 773.3 300.3C805.4 304.7 835.1 306.2 864.4 303.9C883.9 302.4 903.4 299.3 922.6 294.4C949.5 287.5 976.2 276.8 1004.1 262.1C1022.7 252.2 1041.2 240.5 1059.8 227.9C1087.8 209.1 1116 188.4 1142.4 167.8C1184.5 135 1222.5 102.3 1260.4 74.8" stroke="#C7E7F2" stroke-miterlimit="10"/>
<path d="M-141.8 669.4C-103.9 605.4 -42.4 546.5 29.4 503.8C59.1 486.1 91 471.1 125 463.3C159 455.6 195.7 454.9 226.3 461.4C246.7 465.7 262.9 473.2 278 479.4C304 490.2 324.4 499.9 354.5 494.1C372.2 490.7 389.8 481.1 406 469C425.5 454.4 442.9 435.4 458.4 415.9C473.3 397.3 487.6 377.6 504.2 359.1C519 342.6 535.9 326.8 555.7 314.2C584.3 296.1 616.8 285.6 651 283.5C673.9 282.1 696.7 284.7 718.4 288.4C736.7 291.5 754.5 295.4 771.9 298.3C803.9 303.7 833.7 306.6 863.2 305.7C882.8 305.1 902.6 303.1 922.1 299.1C949.5 293.5 976.8 284 1005.2 270.2C1024.2 260.9 1043 249.6 1061.9 237.3C1090.3 218.8 1118.6 198.2 1144.8 177.3C1186.7 144.1 1224 110.3 1261.1 81.5" stroke="#C7E7F2" stroke-miterlimit="10"/>
<path d="M-151.6 648.9C-112.5 585.2 -50.8 526.7 20.8 483.7C50.5 465.9 82.3 450.6 116.3 442.7C150.3 434.8 187.2 434.1 217.7 441.2C238.1 446 254.1 454.3 268.9 461.5C294.5 474 314.5 486 345.4 481.7C363.4 479.2 381.6 470.4 398.4 458.9C418.6 445 436.8 426.5 453 407.4C468.5 389.1 483.5 369.8 500.5 351.7C515.8 335.5 533 320 553.1 307.9C582.2 290.4 615.1 280.7 649.4 279.3C672.4 278.3 695.2 281.3 716.9 285.4C735.2 288.9 753 293.2 770.4 296.6C802.4 303 832.2 307.2 862 307.8C881.7 308.2 901.8 307.1 921.7 304.1C949.5 299.8 977.4 291.5 1006.5 278.5C1025.9 269.8 1045 258.8 1064.1 246.8C1092.8 228.7 1121.3 208 1147.4 187C1189.2 153.3 1225.7 118.6 1261.9 88.4" stroke="#C7E7F2" stroke-miterlimit="10"/>
<path d="M-161.4 628.3C-121.1 565 -59.3 506.8 12.3 463.5C41.9 445.6 73.7 430 107.8 421.9C141.9 413.8 179 413 209.3 420.9C229.7 426.2 245.5 435.2 260 443.5C285.1 457.7 304.7 471.9 336.4 469.3C354.7 467.8 373.4 459.7 390.9 448.7C411.8 435.6 430.8 417.5 447.6 398.9C463.8 381 479.3 362 496.8 344.2C512.5 328.2 530.2 313.1 550.6 301.4C580.3 284.5 613.6 275.7 647.9 274.9C671 274.4 693.8 277.7 715.4 282.2C733.7 286 751.4 290.7 768.8 294.7C800.7 302 830.6 307.7 860.6 309.8C880.5 311.2 900.7 311.1 921.1 309C949.3 306 977.9 298.9 1007.6 286.7C1027.4 278.5 1046.8 268 1066.1 256.2C1095.2 238.5 1123.7 217.7 1149.7 196.5C1191.3 162.3 1227 126.7 1262.5 95.1" stroke="#C7E7F2" stroke-miterlimit="10"/>
<path d="M-171.2 607.7C-129.7 544.7 -67.8 486.9 3.69998 443.3C33.3 425.3 65 409.5 99.1 401.1C133.2 392.8 170.5 392 200.7 400.5C221.1 406.3 236.6 416.1 250.9 425.3C275.6 441.3 294.7 457.6 327.3 456.7C345.9 456.2 365.2 448.9 383.3 438.4C404.8 426 424.7 408.5 442.2 390.3C459 372.8 475.1 354.1 493.1 336.7C509.3 321 527.3 306.3 548.1 295C578.3 278.6 612 270.7 646.4 270.5C669.6 270.4 692.5 274 714 279C732.3 283.2 750 288.2 767.3 292.8C799.2 301.1 829.1 308.2 859.4 311.7C879.4 314 899.9 315 920.6 313.7C949.3 312 978.5 306.1 1008.7 294.7C1028.9 287.1 1048.6 277 1068.2 265.5C1097.7 248.1 1126.3 227.4 1152.1 206C1193.5 171.4 1228.5 134.7 1263.2 101.8" stroke="#C7E7F2" stroke-miterlimit="10"/>
<path d="M-181 587.1C-138.2 524.4 -76.3 467 -4.8 423.1C24.7 404.9 56.3 388.9 90.5 380.4C124.7 371.9 162.2 371.1 192.2 380.3C212.7 386.6 227.9 397.2 241.9 407.4C266.1 425.1 284.8 445.2 318.2 444.3C337.1 443.8 357 438.2 375.7 428.3C397.9 416.6 418.7 399.6 436.8 381.8C454.2 364.7 471 346.3 489.5 329.2C506.2 313.8 524.6 299.4 545.7 288.6C576.5 272.8 610.5 265.8 644.9 266.2C668.2 266.6 691.1 270.5 712.6 275.8C730.9 280.3 748.6 285.8 765.8 290.8C797.6 300.2 827.5 308.5 858.1 313.5C878.2 316.8 899 318.7 920.1 318.4C949.2 318 979 313.3 1009.9 302.7C1030.4 295.6 1050.6 285.9 1070.3 274.7C1100.2 257.7 1128.9 236.9 1154.5 215.3C1195.8 180.2 1230 142.6 1263.8 108.3" stroke="#C7E7F2" stroke-miterlimit="10"/>
<path d="M-190.8 566.6C-146.8 504.2 -84.8 447.3 -13.4 403C16.1 384.7 47.6 368.4 81.9 359.7C116.2 351 153.8 350.2 183.7 360.1C204.2 366.9 219.2 378.2 233 389.5C256.7 408.9 275.1 429.6 309.2 432C328.4 433.3 348.8 427.6 368.2 418.3C391.1 407.3 412.7 390.8 431.4 373.5C449.5 356.8 466.8 338.7 485.8 322C503 306.9 521.7 292.9 543.2 282.4C574.5 267.3 608.9 261 643.4 262C666.8 262.8 689.7 267.1 711.2 272.8C729.5 277.7 747.1 283.6 764.4 289.1C796.2 299.4 826.1 309.2 857 315.6C877.2 319.8 898.3 322.8 919.8 323.4C949.3 324.3 979.8 320.8 1011.2 311.1C1032.1 304.6 1052.6 295.3 1072.5 284.3C1102.8 267.7 1131.6 246.9 1157 225.1C1198.1 189.6 1231.5 151 1264.6 115.3" stroke="#C7E7F2" stroke-miterlimit="10"/>
<path d="M-200.7 546C-155.5 484 -93.3 427.4 -22.1 382.8C7.29999 364.4 38.8 347.8 73.1 339C107.4 330.1 145.3 329.3 175 339.8C195.5 347.1 210.3 359.2 223.8 371.4C247.1 392.5 265 415.4 300 419.4C319.5 421.7 340.5 416.7 360.6 407.9C384.2 397.6 406.6 381.7 426 364.8C444.7 348.5 462.6 330.7 482.1 314.3C499.7 299.5 518.9 285.8 540.7 275.8C572.6 261.3 607.3 255.8 641.9 257.5C665.3 258.7 688.3 263.4 709.8 269.5C728.1 274.8 745.7 281 762.9 287.1C794.7 298.4 824.6 309.5 855.7 317.5C876.1 322.7 897.4 326.6 919.2 328.2C949.2 330.4 980.3 328.1 1012.3 319.2C1033.6 313.2 1054.4 304.4 1074.5 293.6C1105.2 277.3 1134.1 256.6 1159.3 234.5C1200.3 198.6 1232.9 159 1265.1 121.8" stroke="#C7E7F2" stroke-miterlimit="10"/>
<path d="M-210.5 525.4C-164.1 463.7 -101.8 407.5 -30.6 362.6C-1.20002 344.1 30.2 327.3 64.5 318.2C98.9 309.1 136.9 308.2 166.5 319.5C187 327.3 201.6 340.2 214.8 353.4C237.6 376.2 255.2 401.2 290.9 407C310.8 410.2 332.2 406 353 397.8C377.2 388.2 400.6 372.8 420.6 356.3C440 340.4 458.5 322.9 478.4 306.9C496.5 292.4 516 279.1 538.2 269.4C570.6 255.5 605.7 250.8 640.4 253.2C663.9 254.9 686.9 259.9 708.3 266.4C726.6 272 744.2 278.7 761.3 285.3C793 297.6 823 310.1 854.4 319.5C874.9 325.7 896.5 330.6 918.7 333.1C949.1 336.6 980.8 335.5 1013.5 327.4C1035.2 322 1056.3 313.6 1076.7 303.1C1107.7 287.2 1136.7 266.4 1161.8 244.2C1202.7 207.8 1234.5 167.2 1265.9 128.7" stroke="#C7E7F2" stroke-miterlimit="10"/>
<path d="M-220.3 504.8C-172.7 443.4 -110.3 387.6 -39.2 342.3C-9.90002 323.7 21.4 306.6 55.9 297.3C90.3 288 128.6 287.1 158 299C178.5 307.3 192.9 320.9 205.8 335.2C228.2 359.8 245.4 386.9 281.9 394.4C302.1 398.5 324.1 395.1 345.5 387.5C370.4 378.6 394.6 363.8 415.3 347.7C435.4 332.2 454.4 315 474.8 299.4C493.4 285.2 513.3 272.2 535.8 263C568.8 249.7 604.2 245.8 639 248.8C662.6 250.9 685.6 256.3 707 263.2C725.3 269.2 742.8 276.2 760 283.4C791.7 296.7 821.7 310.5 853.3 321.4C874 328.5 895.8 334.4 918.4 337.9C949.3 342.6 981.6 342.8 1014.8 335.5C1036.9 330.7 1058.4 322.6 1078.9 312.4C1110.3 296.8 1139.4 276.1 1164.4 253.6C1205.1 216.8 1236.1 175.2 1266.7 135.3" stroke="#C7E7F2" stroke-miterlimit="10"/>
<path d="M-230.1 484.2C-181.2 423.2 -118.8 367.7 -47.7 322.1C-18.5 303.4 12.8 286 47.3 276.6C81.8 267.2 120.2 266.2 149.5 278.8C170 287.6 184.2 302 196.9 317.2C218.8 343.5 235.7 372.8 272.9 381.9C293.4 387 316 384.3 338 377.3C363.6 369.1 388.6 354.8 409.9 339.1C430.6 324 450.2 307.1 471.1 291.8C490.2 277.9 510.4 265.2 533.3 256.5C566.8 243.7 602.6 240.7 637.5 244.4C661.2 246.9 684.3 252.6 705.6 259.9C723.9 266.2 741.4 273.7 758.5 281.3C790.1 295.6 820.2 310.7 852.1 323.2C872.9 331.2 895 338.2 918 342.6C949.3 348.6 982.3 349.9 1016.1 343.5C1038.6 339.2 1060.4 331.6 1081.1 321.6C1112.9 306.4 1142.1 285.6 1166.9 263C1207.5 225.7 1237.7 183.2 1267.5 141.9" stroke="#C7E7F2" stroke-miterlimit="10"/>
<path d="M-239.9 463.7C-189.8 403 -127.2 347.9 -56.3 302C-27.1 283.1 4.09999 265.6 38.6 255.9C73.1 246.3 111.7 245.4 140.9 258.5C161.4 267.8 175.4 283 187.8 299.2C209.2 327.2 225.8 358.6 263.7 369.5C284.6 375.5 307.6 373.6 330.3 367.2C356.6 359.7 382.5 345.9 404.4 330.7C425.7 315.9 446 299.4 467.3 284.5C486.9 270.9 507.5 258.5 530.7 250.2C564.7 238 601 235.8 635.9 240.2C659.7 243.2 682.8 249.2 704.1 256.9C722.4 263.6 739.9 271.4 756.9 279.6C788.5 294.8 818.6 311.4 850.7 325.3C871.7 334.3 894 342.2 917.3 347.6C949.1 354.8 982.6 357.4 1017.1 351.9C1040 348.2 1062.1 341 1083.1 331.2C1115.3 316.3 1144.6 295.6 1169.2 272.7C1209.7 235 1239.1 191.4 1268 148.8" stroke="#C7E7F2" stroke-miterlimit="10"/>
<path d="M-249.7 443.1C-198.4 382.7 -135.7 328 -64.9 281.8C-35.8 262.8 -4.6 245 30 235.2C64.6 225.4 103.4 224.4 132.4 238.3C188.5 265.1 193.6 337.3 254.7 357.1C300.5 372 357 349.8 399.1 322.2C441.2 294.6 479 260.3 528.3 243.8C586.5 224.3 650.3 233.7 702.7 253.7C755.1 273.7 799.7 303.6 849.5 327.2C899.3 350.7 957.6 368.2 1018.3 359.9C1077.3 351.9 1131.3 320.3 1171.6 282.1C1211.9 243.9 1240.5 199.4 1268.7 155.4" stroke="#C7E7F2" stroke-miterlimit="10"/>
<path d="M-240.8 437.6C-190.2 377.8 -128.5 323.6 -58.8 277.5C-29 257.8 3.10001 239.6 38.5 229.9C72.9 220.5 111.2 219.7 140 233.4C195.5 259.8 201.9 330.1 262.2 349.9C298.9 362 342.3 350.6 379.9 331.7C388.8 327.2 397.4 322.3 405.5 317.2C447.5 290.6 485.2 257 534.1 240.5C567.3 229.3 602.2 227.2 635.8 231C660.5 233.8 684.4 239.7 706.4 247.6C758.3 266.1 802.7 294.1 852.1 316.5C866.3 322.9 881.2 328.8 896.6 333.9C935 346.5 976.7 353.6 1019.5 348.3C1027.1 347.4 1034.6 346 1042 344.4C1091.6 333.2 1136.7 306.4 1172 274.3C1212.3 237.5 1241.5 193.9 1269.5 150.3" stroke="#C7E7F2" stroke-miterlimit="10"/>
<path d="M-231.8 432.1C-181.9 372.8 -121.2 319.1 -52.6 273.2C-22.2 252.8 10.9 234.1 47.2 224.6C81.4 215.6 119.2 214.9 147.9 228.4C202.9 254.3 210.6 322.9 270 342.6C306.3 354.7 349.2 344.2 386.6 326C395.5 321.7 404 317 412.1 312C453.9 286.3 491.6 253.6 540 237C572.8 225.7 607.3 223.2 640.5 226.3C664.8 228.6 688.5 233.9 710.3 241.1C761.6 258 805.8 284.2 854.9 305.3C869 311.3 883.8 317 899.1 321.8C937.4 333.8 978.6 341 1021 336.1C1028.5 335.3 1035.9 334 1043.2 332.5C1092.2 322.1 1137.2 296.8 1172.6 265.8C1213 230.4 1242.8 187.6 1270.5 144.4" stroke="#C7E7F2" stroke-miterlimit="10"/>
<path d="M-222.9 426.5C-173.7 367.8 -114.1 314.5 -46.6 268.8C-15.6 247.8 18.6 228.6 55.6 219.2C89.6 210.6 126.9 210.1 155.4 223.4C209.8 248.9 218.8 315.6 277.5 335.3C313.5 347.4 355.8 337.7 393.1 320.4C401.9 316.3 410.4 311.7 418.5 306.9C460.1 282.1 497.9 250.2 545.7 233.6C578.2 222.3 612.2 219.4 645 221.8C669 223.6 692.4 228.3 714 234.8C764.8 250.2 808.8 274.5 857.4 294.4C871.5 300.1 886.1 305.4 901.3 310C939.4 321.4 980.2 328.6 1022.1 324.3C1029.5 323.6 1036.9 322.5 1044.1 321C1092.6 311.4 1137.3 287.6 1172.9 257.7C1213.4 223.7 1243.7 181.8 1271.2 139" stroke="#C7E7F2" stroke-miterlimit="10"/>
<path d="M-213.9 421C-165.4 362.9 -106.8 310 -40.4 264.4C-8.70001 242.7 26.4 223 64.3 213.8C98.1 205.6 134.9 205.2 163.2 218.3C217.1 243.3 227.3 308.3 285.2 327.9C320.9 340 362.6 331.2 399.8 314.6C408.6 310.7 417.1 306.3 425.1 301.7C466.5 277.8 504.3 246.7 551.6 230C583.7 218.7 617.3 215.3 649.7 217C673.4 218.3 696.5 222.4 717.8 228.2C768 242 811.8 264.6 860.1 283.1C874.1 288.4 888.7 293.4 903.7 297.8C941.6 308.7 982 315.8 1023.4 312C1030.8 311.3 1038 310.4 1045.2 309.1C1093.2 300.4 1137.6 278 1173.4 249.2C1213.9 216.5 1244.8 175.6 1272.1 133.2" stroke="#C7E7F2" stroke-miterlimit="10"/>
<path d="M-205 415.5C-157.2 357.9 -99.7 305.5 -34.3 260.1C-2 237.7 34.1 217.5 72.9 208.5C106.5 200.7 142.8 200.5 170.9 213.4C224.3 238 235.7 301.1 292.9 320.7C328.2 332.9 369.5 324.8 406.5 309C415.2 305.2 423.7 301.1 431.7 296.6C473 273.7 510.7 243.3 557.6 226.6C589.4 215.3 622.5 211.4 654.5 212.5C677.8 213.3 700.6 216.8 721.8 221.9C771.5 234 815 255 863 272.2C876.9 277.2 891.4 281.9 906.3 286C944 296.4 984.1 303.4 1025 300.2C1032.3 299.6 1039.5 298.8 1046.6 297.6C1094 289.7 1138.2 268.8 1174.1 241C1214.7 209.7 1246.2 169.7 1273.2 127.7" stroke="#C7E7F2" stroke-miterlimit="10"/>
<path d="M-196.1 410C-149 353 -92.5 300.9 -28.3 255.8C4.59999 232.6 41.7 212.1 81.3 203.2C114.7 195.7 150.4 195.8 178.4 208.5C231.2 232.6 243.9 294 300.3 313.5C335.3 325.7 376 318.5 412.8 303.5C421.5 299.9 429.9 295.9 437.9 291.7C479 269.7 516.7 240.1 563.1 223.4C594.5 212.1 627.2 207.8 658.7 208.2C681.7 208.6 704.2 211.4 725.2 215.9C774.4 226.5 817.7 245.6 865.3 261.6C879.1 266.2 893.5 270.6 908.3 274.5C945.8 284.3 985.5 291.3 1025.9 288.6C1033.1 288.1 1040.3 287.4 1047.3 286.4C1094.2 279.4 1138 259.9 1174.2 233.2C1214.8 203.2 1246.9 164.1 1273.7 122.6" stroke="#C7E7F2" stroke-miterlimit="10"/>
<path d="M-187.1 404.5C-140.7 348 -85.3 296.4 -22.1 251.4C11.5 227.5 49.5 206.5 90 197.8C123.2 190.7 158.4 190.9 186.3 203.4C238.6 227.1 252.5 286.6 308.1 306.1C342.8 318.3 382.9 312 419.6 297.7C428.2 294.3 436.6 290.5 444.6 286.4C485.5 265.3 523.2 236.5 569.1 219.8C600.1 208.5 632.4 203.7 663.5 203.4C686.2 203.3 708.4 205.5 729.2 209.3C777.8 218.3 821 235.6 868.2 250.3C881.9 254.6 896.2 258.7 910.9 262.3C948.2 271.6 987.5 278.5 1027.4 276.3C1034.5 275.9 1041.6 275.3 1048.6 274.4C1095 268.3 1138.5 250.2 1174.9 224.6C1215.5 196 1248.2 157.8 1274.8 116.7" stroke="#C7E7F2" stroke-miterlimit="10"/>
<path d="M-178.2 398.9C-132.5 343 -78.2 291.7 -16 247C18.2 222.4 57.2 200.9 98.5 192.4C131.5 185.6 166.2 186.1 193.9 198.4C245.6 221.6 260.8 279.4 315.7 298.8C350 311.1 389.7 305.6 426.2 292.1C434.8 288.9 443.1 285.3 451.1 281.3C491.9 261.2 529.5 233.1 574.9 216.3C605.6 205 637.4 199.7 668.1 198.8C690.4 198.1 712.4 199.7 732.9 202.9C781 210.3 823.9 225.8 870.8 239.3C884.5 243.2 898.6 247 913.2 250.4C950.3 259.1 989.2 266 1028.7 264.4C1035.8 264.1 1042.8 263.6 1049.7 262.8C1095.6 257.5 1138.8 240.9 1175.4 216.4C1216 189.2 1249.3 151.9 1275.7 111.2" stroke="#C7E7F2" stroke-miterlimit="10"/>
<path d="M-169.2 393.4C-124.2 338.1 -71 287.1 -9.80002 242.7C25 217.4 65 195.4 107.2 187.1C140 180.7 174.2 181.3 201.7 193.4C252.9 216.2 269.3 272.1 323.4 291.5C357.4 303.8 396.5 299.2 432.9 286.4C441.4 283.4 449.7 279.9 457.7 276.2C498.3 257 535.9 229.7 580.8 212.9C611.1 201.6 642.5 195.8 672.8 194.3C694.8 193.2 716.5 194.1 736.8 196.6C784.3 202.4 827.1 216.1 873.5 228.3C887.1 231.9 901.2 235.3 915.6 238.5C952.6 246.6 991 253.5 1030 252.4C1037 252.2 1043.9 251.8 1050.8 251.2C1096.1 246.7 1139.1 231.6 1175.9 208.2C1216.6 182.3 1250.5 145.9 1276.5 105.7" stroke="#C7E7F2" stroke-miterlimit="10"/>
<path d="M-160.3 387.9C-116 333.1 -63.9 282.5 -3.80002 238.3C31.6 212.3 72.7 189.8 115.7 181.7C148.2 175.6 182 176.5 209.3 188.4C260 210.7 277.6 264.9 330.9 284.2C364.6 296.5 403.1 292.8 439.4 280.7C447.9 277.9 456.2 274.6 464.1 271C504.5 252.7 542.1 226.2 586.6 209.4C616.6 198 647.5 191.9 677.3 189.6C699 188 720.3 188.3 740.5 190.2C787.5 194.5 830 206.3 876.1 217.3C889.6 220.5 903.6 223.7 918 226.6C954.8 234.2 992.8 241 1031.3 240.5C1038.2 240.4 1045.1 240.1 1051.9 239.6C1096.7 236 1139.4 222.3 1176.3 200C1217 175.4 1251.5 140 1277.3 100.2" stroke="#C7E7F2" stroke-miterlimit="10"/>
<path d="M-151.3 382.4C-107.7 328.2 -56.7 277.9 2.39998 234C38.4 207.2 80.5 184.3 124.3 176.5C156.6 170.7 189.9 171.8 217 183.6C267.1 205.5 286.1 257.8 338.6 277.1C371.9 289.4 410 286.5 446 275.3C454.4 272.7 462.7 269.6 470.6 266.2C510.8 248.8 548.5 223.1 592.4 206.3C622 194.9 652.5 188.3 681.9 185.4C703.3 183.3 724.3 183 744.3 184.2C790.7 186.9 833.1 197 878.8 206.7C892.2 209.6 906.1 212.4 920.4 215.1C957 222.1 994.7 228.7 1032.7 228.9C1039.6 228.9 1046.4 228.8 1053.1 228.3C1097.4 225.5 1139.7 213.3 1176.9 192.1C1217.6 168.9 1252.7 134.4 1278.3 95" stroke="#C7E7F2" stroke-miterlimit="10"/>
<path d="M-142.4 376.9C-99.5 323.3 -49.6 273.3 8.49998 229.7C45.1 202.2 88.2 178.8 132.9 171.2C165 165.8 197.8 167.1 224.7 178.6C274.3 200 294.5 250.6 346.2 269.8C379.2 282.2 416.7 280.1 452.6 269.6C461 267.2 469.2 264.2 477.1 261C517.1 244.6 554.8 219.7 598.2 202.7C627.5 191.3 657.5 184.3 686.5 180.7C707.5 178.1 728.3 177.2 748 177.7C793.9 178.8 836 187.1 881.4 195.5C894.8 198 908.5 200.6 922.7 203.1C959.1 209.5 996.4 216.3 1033.9 216.9C1040.7 217 1047.4 217 1054.1 216.7C1097.8 214.7 1139.9 204 1177.3 183.9C1218 162 1253.8 128.5 1279.1 89.5" stroke="#C7E7F2" stroke-miterlimit="10"/>
<path d="M-133.5 371.4C-91.3 318.3 -42.5 268.6 14.5 225.3C51.7 197 95.8 173.1 141.4 165.8C173.3 160.7 205.6 162.2 232.4 173.6C281.4 194.5 302.9 243.3 353.9 262.5C386.6 274.9 423.5 273.7 459.3 263.9C467.6 261.6 475.8 258.9 483.7 255.8C523.6 240.3 561.2 216.2 604.1 199.2C633 187.8 662.6 180.3 691.2 176C711.9 172.9 732.4 171.4 751.9 171.2C797.2 170.8 839.2 177.2 884.2 184.4C897.5 186.5 911.2 188.8 925.2 191.1C961.5 197 998.3 203.7 1035.3 204.8C1042 205 1048.7 205.1 1055.3 204.9C1098.5 203.8 1140.3 194.5 1177.9 175.5C1218.6 154.9 1255 122.3 1280.1 83.8" stroke="#C7E7F2" stroke-miterlimit="10"/>
<path d="M-124.5 365.8C-83 313.3 -35.3 263.9 20.7 220.9C58.5 191.9 103.6 167.5 150 160.4C181.7 155.6 213.5 157.4 240.1 168.5C288.6 189 311.3 236 361.5 255.1C393.8 267.5 430.2 267.1 465.9 258.2C474.2 256.1 482.3 253.6 490.2 250.7C529.9 236.1 567.5 212.8 609.9 195.8C638.5 184.4 667.6 176.4 695.7 171.5C716.1 167.9 736.2 165.8 755.6 164.9C800.4 162.9 842.2 167.5 886.7 173.5C899.9 175.3 913.5 177.2 927.4 179.3C963.5 184.6 999.9 191.3 1036.5 192.9C1043.1 193.2 1049.7 193.4 1056.3 193.3C1099 193 1140.4 185.1 1178.2 167.2C1218.9 148 1255.9 116.3 1280.8 78.2" stroke="#C7E7F2" stroke-miterlimit="10"/>
<path d="M-115.6 360.3C-74.8 308.3 -28.3 259.2 26.8 216.6C65.2 186.8 111.3 161.9 158.6 155.1C190 150.6 221.4 152.7 247.8 163.6C295.8 183.6 319.7 228.8 369.1 247.8C401.1 260.3 436.9 260.7 472.4 252.5C480.6 250.6 488.7 248.2 496.6 245.5C536.1 231.8 573.7 209.3 615.7 192.3C643.9 180.9 672.6 172.5 700.3 166.9C720.3 162.8 740.2 160.1 759.4 158.6C803.6 155.1 845.2 157.8 889.4 162.5C902.5 163.9 916 165.5 929.8 167.4C965.7 172.1 1001.7 178.8 1037.8 181C1044.4 181.4 1050.9 181.7 1057.4 181.8C1099.5 182.3 1140.7 175.9 1178.7 159.1C1219.4 141.2 1257 110.5 1281.7 72.8" stroke="#C7E7F2" stroke-miterlimit="10"/>
<path d="M-106.6 354.8C-66.6 303.4 -21.1 254.6 32.9 212.3C71.9 181.8 119 156.4 167.1 149.8C198.3 145.6 229.2 147.9 255.4 158.7C302.8 178.3 328 221.7 376.7 240.6C408.4 253.1 443.7 254.3 479 246.9C487.2 245.2 495.2 243 503.1 240.5C542.4 227.7 580 206 621.5 188.9C649.3 177.5 677.6 168.6 704.9 162.3C724.6 157.8 744.2 154.4 763.1 152.2C806.8 147.1 848.2 147.9 892 151.5C905.1 152.6 918.5 153.9 932.1 155.5C967.8 159.7 1003.4 166.4 1039 169C1045.5 169.5 1051.9 169.9 1058.4 170.1C1100 171.4 1140.8 166.4 1179.1 150.8C1219.8 134.2 1258.1 104.5 1282.5 67.2" stroke="#C7E7F2" stroke-miterlimit="10"/>
<path d="M-97.7 349.3C-58.3 298.5 -14.1 249.9 39 207.9C78.6 176.6 126.7 150.7 175.7 144.4C206.7 140.4 237 143.1 263.1 153.6C310 172.7 336.4 214.3 384.3 233.2C415.6 245.7 450.4 247.8 485.6 241.2C493.7 239.7 501.7 237.7 509.6 235.3C548.7 223.4 586.3 202.5 627.3 185.4C654.8 174 682.6 164.7 709.5 157.7C728.9 152.7 748.1 148.7 766.9 145.8C810 139.2 851.2 138.1 894.7 140.4C907.7 141.1 921 142.1 934.5 143.5C970 147.1 1005.3 153.8 1040.4 157C1046.8 157.6 1053.2 158.1 1059.5 158.4C1100.6 160.6 1141.1 157 1179.6 142.5C1220.3 127.2 1259.2 98.4 1283.4 61.6" stroke="#C7E7F2" stroke-miterlimit="10"/>
<path d="M-88.7 343.8C-50 293.5 -6.90002 245.2 45.2 203.6C85.4 171.5 134.5 145.1 184.4 139.1C215.2 135.4 245 138.3 270.9 148.7C317.2 167.4 344.9 207.2 392 226C423 238.5 457.2 241.5 492.3 235.6C500.4 234.3 508.4 232.4 516.2 230.2C555.1 219.2 592.7 199.1 633.2 182C660.3 170.5 687.7 160.8 714.1 153.2C733.1 147.7 752.1 143.1 770.7 139.5C813.3 131.3 854.3 128.4 897.4 129.5C910.3 129.8 923.5 130.5 936.9 131.7C972.3 134.7 1007.1 141.4 1041.7 145.1C1048.1 145.8 1054.4 146.4 1060.6 146.9C1101.1 149.9 1141.3 147.7 1180.1 134.4C1220.7 120.4 1260.3 92.6 1284.3 56.2" stroke="#C7E7F2" stroke-miterlimit="10"/>
<path d="M-79.8 338.3C-41.8 288.6 0.0999832 240.5 51.2 199.3C91.9 166.4 142 139.5 192.8 133.8C223.3 130.4 252.7 133.6 278.5 143.7C324.3 161.9 353.3 199.9 399.6 218.7C430.3 231.3 463.9 235 498.9 229.9C506.9 228.7 514.9 227.1 522.7 225.1C561.5 215 599.1 195.7 639 178.6C665.8 167.1 692.7 157 718.7 148.6C737.4 142.6 756.1 137.4 774.4 133.1C816.4 123.4 857.3 119 900 118.5C912.8 118.3 925.9 118.9 939.2 119.8C974.4 122.2 1008.8 128.9 1042.9 133.2C1049.2 134 1055.4 134.7 1061.6 135.3C1101.6 139.1 1141.5 138.4 1180.4 126.2C1221 113.5 1261.2 86.7 1285 50.7" stroke="#C7E7F2" stroke-miterlimit="10"/>
<path d="M-70.9 332.7C-33.6 283.6 7.19999 235.8 57.3 194.8C98.6 161.1 149.7 133.7 201.4 128.3C231.7 125.2 260.6 128.6 286.2 138.6C331.5 156.4 361.7 192.5 407.2 211.3C437.5 223.9 470.7 228.5 505.4 224.2C513.4 223.2 521.3 221.8 529.1 219.9C567.7 210.7 605.3 192.2 644.8 175.1C671.2 163.6 697.7 153 723.3 144C741.7 137.5 760.1 131.7 778.2 126.8C819.7 115.5 860.3 108.9 902.6 107.5C915.4 107.1 928.4 107.2 941.5 107.9C976.5 109.7 1010.5 116.4 1044.2 121.2C1050.4 122.1 1056.6 122.9 1062.7 123.7C1102.2 128.3 1141.7 129 1180.9 118C1221.5 106.6 1262.4 80.7 1285.9 45.2" stroke="#C7E7F2" stroke-miterlimit="10"/>
<path d="M-61.9 327.2C-25.3 278.6 14.3 231.1 63.5 190.5C105.4 156 157.5 128.1 210 123C240.1 120.1 268.5 123.9 293.9 133.7C338.6 151 370.1 185.4 414.9 204.1C444.9 216.7 477.5 222.1 512.1 218.6C520 217.8 527.9 216.5 535.7 214.9C574.1 206.6 611.7 189 650.7 171.7C676.8 160.2 702.8 149.2 728 139.4C746 132.5 764.2 126 782.1 120.4C823 107.6 863.5 99 905.4 96.5C918.1 95.7 931 95.5 944 96C978.8 97.3 1012.4 104 1045.6 109.2C1051.7 110.2 1057.8 111.1 1063.9 112C1102.8 117.4 1142.1 119.5 1181.5 109.7C1222.1 99.5 1263.6 74.7 1286.9 39.6" stroke="#C7E7F2" stroke-miterlimit="10"/>
<path d="M-53 321.7C-17.1 273.7 21.3 226.4 69.6 186.2C112 150.9 165.2 122.4 218.6 117.8C248.5 115.2 276.4 119.2 301.6 128.8C345.8 145.7 378.5 178.2 422.5 196.9C452.2 209.6 484.2 215.7 518.7 213C526.6 212.4 534.4 211.3 542.2 209.8C580.4 202.4 618 185.6 656.5 168.3C682.2 156.8 707.8 145.3 732.5 134.9C750.2 127.5 768 120.4 785.8 114.1C826.2 99.8 866.4 89.3 908 85.6C920.6 84.5 933.4 83.9 946.3 84.2C981 84.9 1014.1 91.7 1046.8 97.4C1052.9 98.5 1058.9 99.6 1064.9 100.5C1103.3 106.7 1142.2 110.2 1181.9 101.5C1222.5 92.6 1264.6 68.8 1287.7 34.1" stroke="#C7E7F2" stroke-miterlimit="10"/>
<path d="M-44 316.2C-8.8 268.7 28.4 221.7 75.7 181.9C118.6 145.8 172.9 116.8 227.2 112.5C256.8 110.1 284.3 114.5 309.3 123.9C353 140.3 386.9 171.1 430.1 189.7C459.4 202.4 490.9 209.4 525.3 207.5C533.1 207 540.9 206.1 548.6 204.8C586.6 198.3 624.2 182.3 662.2 165C687.5 153.5 712.7 141.6 737 130.5C754.4 122.6 771.9 114.9 789.4 107.9C829.2 92 869.3 79.7 910.5 74.7C923.1 73.2 935.7 72.4 948.5 72.4C983 72.5 1015.7 79.3 1048 85.5C1054 86.7 1060 87.9 1065.9 89C1103.8 96 1142.4 100.9 1182.3 93.4C1222.9 85.8 1265.7 63 1288.5 28.6" stroke="#C7E7F2" stroke-miterlimit="10"/>
<path d="M-35.1 310.7C-0.600006 263.8 35.4 216.9 81.8 177.5C125.3 140.5 180.6 111 235.7 107.1C265.1 105 292.1 109.7 317 118.9C360.1 134.9 395.3 163.8 437.8 182.4C466.8 195.1 497.7 202.9 531.9 201.8C539.7 201.5 547.4 200.8 555.1 199.7C592.9 194.1 630.5 178.9 668.1 161.6C693.1 150.1 717.8 137.7 741.7 125.9C758.8 117.5 776 109.3 793.3 101.6C832.6 84.3 872.4 69.9 913.3 63.8C925.8 61.9 938.4 60.8 951 60.6C985.3 60 1017.6 66.9 1049.4 73.7C1055.3 75 1061.2 76.3 1067.1 77.5C1104.5 85.3 1142.7 91.6 1182.8 85.3C1223.4 78.9 1266.8 57.1 1289.4 23.2" stroke="#C7E7F2" stroke-miterlimit="10"/>
<path d="M-26.1 305.2C7.69999 258.9 42.5 212.2 88 173.2C132 135.4 188.4 105.4 244.4 101.8C273.6 99.9 300.1 104.9 324.8 113.9C367.4 129.4 403.8 156.6 445.5 175.1C474.2 187.9 504.6 196.5 538.6 196.1C546.3 196 554 195.5 561.7 194.5C599.3 189.8 636.9 175.4 674 158C698.6 146.5 722.9 133.7 746.4 121.2C763.1 112.3 780.1 103.4 797.2 95.1C836 76.2 875.6 60 916 52.6C928.4 50.3 940.9 48.9 953.4 48.5C987.5 47.4 1019.5 54.2 1050.7 61.5C1056.6 62.9 1062.4 64.3 1068.2 65.6C1105 74.2 1143 81.9 1183.3 76.8C1223.9 71.6 1267.9 50.9 1290.3 17.4" stroke="#C7E7F2" stroke-miterlimit="10"/>
<path d="M-17.2 299.6C15.9 253.8 49.5 207.4 94 168.8C138.5 130.2 196 99.6 252.8 96.4C365.8 90.1 433.6 189 545 190.5C614.9 191.4 685.9 153.7 750.8 116.7C815.7 79.7 884.9 40.3 955.6 36.7C995.9 34.7 1032.8 44.7 1069.2 54.1C1105.5 63.5 1143.1 72.6 1183.7 68.7C1224.3 64.8 1268.9 45.1 1291.1 12" stroke="#C7E7F2" stroke-miterlimit="10"/>
</g>
<mask id="mask2_3_307" style="mask-type:luminance" maskUnits="userSpaceOnUse" x="0" y="0" width="1200" height="800">
<path d="M1200 0H0V800H1200V0Z" fill="white"/>
</mask>
<g mask="url(#mask2_3_307)">
<path d="M1318.8 148.9C1315.7 170 1309.8 190.7 1295 205.5C1280.2 220.2 1258.8 226.4 1237.9 227.6C1217.1 228.8 1196.3 225.7 1175.5 224.5C1106.8 220.6 1037 238.9 979.1 276C934 304.8 895.5 344.9 845.5 364.2C823.1 372.8 798.9 376.8 775 376.1C753.6 375.4 730.6 364.4 710 371.1C669.5 384.3 653.5 428.7 644.5 466.1C635.8 502 627 541.7 597.3 563.5C580.8 575.6 556.1 581.4 540.9 563.9C525.1 545.8 537.1 526 544.5 507.6C558.9 471.8 542.9 444.3 534.7 410.1C526.5 376.1 542.4 350.8 566.8 328.4C593.7 303.7 616.7 289.8 626.2 251.3C633.9 220.1 633 187.4 640.3 156.1C648 123 670.4 82.8 708.8 82.4C737.7 82.1 761 104.4 785.3 120.2C822 144.2 867.2 154.8 910.8 149.9C955.2 144.9 997.5 123.8 1028.1 91.3C1054.2 63.6 1069.9 27.5 1097.6 1.5C1123.8 -23.1 1158.4 -39.3 1194.6 -40.1C1247.6 -41.4 1301.1 -7.1 1317.2 43.4C1326 70.8 1324 100.4 1321.4 129.1C1320.5 135.6 1319.8 142.3 1318.8 148.9Z" fill="#012030"/>
<path d="M-113.8 772.8C-46 785.5 26.7 769.2 82.6 728.8C107.6 710.8 129.8 687.3 139.9 658.3C147.3 637.2 147.9 614.4 154.4 593C170.9 538.8 228.6 500.4 284.9 506C314.7 508.9 342.2 522.5 369.7 534.2C397.2 545.9 426.9 556.2 456.5 552.1C486.1 548 515.2 525.3 516.7 495.4C517.9 471.6 502.4 450.6 489.1 430.8C475.8 411 463.6 386.5 471.9 364.1C483.8 332.3 526.4 327.6 553.3 306.9C570.4 293.7 581.4 271.7 577.8 250.4C574.2 229.1 553.9 211 532.4 213.2C508.4 215.7 493.2 239.2 481.7 260.4C469.9 282.1 458.2 304.3 440.6 321.7C423 339 398.3 351 373.9 347.3C329.8 340.5 308.7 289.9 273 263.1C238.6 237.4 192.3 235.4 149.5 238.5C59.9 245.1 -28.2 270.2 -107.9 311.7L-113.8 772.8Z" fill="#012030"/>
</g>
<mask id="mask3_3_307" style="mask-type:luminance" maskUnits="userSpaceOnUse" x="0" y="0" width="1200" height="800">
<path d="M1200 0H0V800H1200V0Z" fill="white"/>
</mask>
<g mask="url(#mask3_3_307)">
<path d="M-57.2 459C-12.3 431.2 48 440.6 93 468.3C138 496 171 539.1 203 581.1C234.1 622 273.2 666.9 324.6 665.4C372.6 663.9 409.6 620.2 425.2 574.8C440.8 529.4 441.6 480.1 454.2 433.8C466.8 387.4 496.5 340.4 543.3 329.5C585.1 319.8 627.1 341.4 669.5 348.3C764.2 363.8 854.7 305.4 926.9 242.1C999.1 178.8 1068.9 105.3 1161.5 80" stroke="#FF9E73" stroke-miterlimit="10"/>
<path d="M-60.7 453.6C-16.5 425.5 42.6 433.1 87.5 458.6C132.4 484.1 166.1 524.6 198.8 564.7C225.2 597.2 256.9 632.8 295.9 643.8C303.7 646 311.8 647.2 320.2 647.2C367.4 647.2 403.8 607.4 421.1 564.9C438.5 522.1 442.1 473.6 455.9 427.5C457.4 422.4 459.2 417.3 461.1 412.2C476.4 371.5 504.6 333 546.2 322.7C557 320 567.9 319.4 578.8 320.1C610.1 322.2 641.5 335.3 673 340.8C706.6 346.7 739.7 343.9 771.7 334.4C821.3 319.7 867.8 288.9 908.9 254.6C916.5 248.3 923.9 241.9 931.1 235.4C963.2 206.6 994.8 175.8 1028.7 148.7C1070.7 115.1 1116.6 87.6 1167.1 76.9" stroke="#F99A78" stroke-miterlimit="10"/>
<path d="M-64.1 448.2C-20.7 419.9 37.4 425.6 82.2 448.8C127 472 161.5 510 194.8 548.2C221.8 579.2 253.7 613.4 292.1 625.1C299.8 627.4 307.8 628.8 316 629.1C362.4 630.6 398.3 594.7 417.3 555C436.5 514.9 442.8 467.1 457.9 421.2C459.6 416.1 461.4 411 463.4 406C479.5 365.5 507.9 326.9 549.4 316C560.2 313.2 571.1 312.4 582.1 312.9C613.6 314.5 645.2 327.5 676.9 333.4C710.6 339.7 743.8 337.9 776.1 328.9C826.3 314.9 872.9 283.4 913.8 248.4C921.3 242 928.7 235.4 935.8 228.8C967.7 199.4 999.2 168.1 1033.4 141.1C1075.8 107.6 1123.3 81.4 1173.1 73.9" stroke="#F3967C" stroke-miterlimit="10"/>
<path d="M-67.6 442.8C-24.9 414.2 32 418.2 76.7 439.1C121.4 460 156.6 495.4 190.7 531.8C218.3 561.2 250.3 594.2 288.3 606.4C295.9 608.8 303.7 610.4 311.8 610.9C357.4 613.9 392.7 581.9 413.4 545.1C434.4 507.6 443.5 460.6 459.8 414.9C461.6 409.8 463.6 404.8 465.7 399.7C482.6 359.4 511.1 320.6 552.5 309.2C563.3 306.2 574.2 305.2 585.3 305.6C617.1 306.7 648.8 319.6 680.6 325.9C714.3 332.6 747.7 331.8 780.2 323.2C830.9 309.9 877.6 277.7 918.3 242.1C925.8 235.6 933.1 228.9 940.2 222.2C972 192.3 1003.3 160.5 1037.9 133.5C1080.7 100.1 1129.9 75.2 1179 70.9" stroke="#EC9281" stroke-miterlimit="10"/>
<path d="M-71 437.5C-29.1 408.6 26.7 410.8 71.3 429.5C115.9 448.2 151.9 481 186.6 515.5C214.8 543.4 247 575.1 284.4 587.8C291.9 590.3 299.6 592.1 307.5 592.8C352.2 597.2 387.1 569.1 409.4 535.3C432.3 500.4 444 454.2 461.6 408.8C463.5 403.8 465.6 398.7 467.8 393.7C485.5 353.6 514.1 314.7 555.5 302.6C566.3 299.4 577.2 298.2 588.4 298.5C620.4 299.1 652.3 311.9 684.3 318.7C718.1 325.8 751.6 326 784.4 317.8C835.6 305.2 882.5 272.2 922.9 236C930.3 229.3 937.6 222.5 944.7 215.7C976.3 185.2 1007.4 152.9 1042.4 126C1085.6 92.7 1136.4 69 1184.8 68" stroke="#E68E85" stroke-miterlimit="10"/>
<path d="M-74.4 432.1C-33.2 403 21.5 403.3 66 419.8C110.5 436.2 147.2 466.5 182.7 499.1C211.4 525.5 243.8 555.8 280.8 569.2C288.1 571.8 295.7 573.7 303.5 574.8C347.4 580.6 381.9 556.4 405.7 525.6C430.6 493.3 444.9 447.9 463.7 402.7C465.8 397.7 468 392.7 470.3 387.7C488.8 347.8 517.6 308.8 558.8 296.1C569.6 292.8 580.6 291.4 591.8 291.4C624 291.6 656 304.2 688.2 311.4C722.1 318.9 755.7 320.1 788.8 312.4C840.6 300.5 887.6 266.8 927.7 229.9C935.1 223.1 942.3 216.2 949.4 209.2C980.9 178.2 1011.8 145.4 1047.2 118.5C1090.8 85.2 1143.3 62.9 1190.9 65.1" stroke="#E08B8A" stroke-miterlimit="10"/>
<path d="M-77.9 426.7C-37.5 397.3 16.1 395.9 60.5 410C104.9 424.2 142.4 451.9 178.5 482.6C207.8 507.4 240.4 536.5 276.8 550.4C284 553.1 291.4 555.2 299.1 556.5C342.2 563.8 376.4 543.4 401.6 515.5C428.5 485.8 445.3 441.2 465.4 396.2C467.6 391.2 469.9 386.2 472.3 381.3C491.6 341.6 520.5 302.4 561.7 289.1C572.5 285.6 583.5 284 594.8 283.9C627.3 283.6 659.4 296.1 691.8 303.7C725.8 311.6 759.5 313.7 792.8 306.5C845.1 295.3 892.2 260.9 932.2 223.3C939.5 216.4 946.7 209.4 953.7 202.3C985 170.7 1015.8 137.4 1051.5 110.5C1095.5 77.3 1149.6 56.2 1196.5 61.7" stroke="#DA878E" stroke-miterlimit="10"/>
<path d="M-81.3 421.3C-41.6 391.6 10.8 388.4 55.1 400.3C99.4 412.2 137.6 437.4 174.4 466.2C204.3 489.5 237 517.3 273 531.7C280.1 534.5 287.4 536.8 294.9 538.3C337.2 547.1 371.1 530.6 397.7 505.6C426.7 478.5 446 434.7 467.3 390C469.7 385.1 472.1 380.1 474.6 375.2C494.7 335.7 523.7 296.4 564.9 282.5C575.7 278.9 586.7 277.1 598.1 276.8C630.8 276 663.1 288.4 695.7 296.4C729.8 304.7 763.6 307.8 797.2 301.1C850 290.6 897.3 255.5 937 217.3C944.3 210.3 951.4 203.1 958.4 195.9C989.6 163.8 1020.2 130 1056.3 103.1C1100.8 70 1156.5 50.2 1202.7 58.9" stroke="#D48393" stroke-miterlimit="10"/>
<path d="M-84.8 415.9C-45.8 386 5.49998 380.9 49.7 390.6C93.9 400.3 132.9 422.9 170.4 449.8C200.8 471.5 233.8 498.1 269.3 513.1C276.3 516.1 283.4 518.5 290.7 520.3C332.2 530.6 365.8 518 393.8 495.9C424.9 471.4 446.6 428.3 469.1 383.9C471.6 379 474.1 374.1 476.7 369.2C497.6 330 526.7 290.4 567.8 276C578.6 272.2 589.6 270.2 601.1 269.8C634 268.5 666.5 280.9 699.2 289.2C733.4 297.9 767.3 302 801.1 295.7C854.4 285.9 901.8 250.1 941.3 211.2C948.5 204.1 955.6 196.8 962.6 189.5C993.6 156.8 1024.1 122.5 1060.5 95.7C1105.4 62.7 1162.7 44.1 1208.2 56.2" stroke="#CE7F97" stroke-miterlimit="10"/>
<path d="M-88.2 410.5C-50 380.3 0.199989 373.5 44.3 380.9C88.4 388.3 128.1 408.4 166.3 433.4C197.3 453.6 230.4 478.8 265.4 494.4C272.3 497.5 279.3 500.1 286.4 502.1C327.1 513.9 360.6 505.2 389.8 486C423.1 464.1 447.2 421.8 470.9 377.6C473.5 372.7 476.2 367.8 478.9 362.9C500.5 323.9 529.9 284.2 570.9 269.1C581.7 265.1 592.8 262.9 604.3 262.3C637.4 260.6 670.1 272.8 703 281.6C737.2 290.7 771.3 295.8 805.4 289.9C859.3 280.8 906.8 244.3 946 204.7C953.2 197.5 960.2 190 967.2 182.6C998.1 149.3 1028.4 114.6 1065.2 87.8C1110.5 54.8 1169.5 37.6 1214.2 52.9" stroke="#C87B9C" stroke-miterlimit="10"/>
<path d="M-91.7 405.1C-54.2 374.6 -5.20001 366 38.8 371.1C82.8 376.2 123.3 393.8 162.2 416.9C193.8 435.6 227.1 459.5 261.6 475.7C268.4 478.9 275.2 481.6 282.2 484C322.1 497.3 355.4 492.5 385.9 476.1C421.4 457 447.8 415.3 472.8 371.4C475.6 366.5 478.3 361.7 481.2 356.8C503.6 318 533.1 278.2 574 262.5C584.7 258.4 595.9 256 607.5 255.2C640.9 253 673.7 265.1 706.7 274.3C741 283.8 775.2 289.9 809.6 284.5C864 276.1 911.6 238.8 950.7 198.7C957.9 191.3 964.8 183.8 971.7 176.2C1002.4 142.4 1032.6 107.1 1069.7 80.4C1115.4 47.5 1176 31.6 1220 50.1" stroke="#C177A0" stroke-miterlimit="10"/>
<path d="M-95.1 399.7C-58.4 369 -10.5 358.5 33.5 361.4C77.4 364.3 118.6 379.3 158.2 400.5C190.4 417.6 223.8 440.3 257.8 457C264.4 460.3 271.2 463.2 278 465.8C317 480.5 350.3 479.9 382 466.2C419.8 449.9 448.5 408.8 474.7 365.1C477.6 360.3 480.5 355.4 483.4 350.6C506.6 312 536.2 272 577.1 255.7C587.8 251.4 599 248.8 610.7 247.9C644.3 245.2 677.3 257.2 710.5 266.8C744.9 276.7 779.2 283.8 813.8 278.8C868.7 271.1 916.5 233.1 955.3 192.3C962.4 184.8 969.3 177.2 976.2 169.5C1006.8 135.1 1036.7 99.4 1074.3 72.7C1120.4 39.9 1182.6 25.2 1226 47" stroke="#BB73A4" stroke-miterlimit="10"/>
<path d="M-98.5 394.3C-62.5 363.3 -15.7 351 28.1 351.7C71.9 352.3 113.9 364.8 154.1 384C186.8 399.6 220.5 420.9 254 438.2C260.5 441.6 267.1 444.7 273.8 447.5C312 463.7 345.2 467.2 378.1 456.2C418.2 442.8 449.1 402.2 476.6 358.7C479.6 353.9 482.7 349.1 485.7 344.3C509.7 305.9 539.4 265.8 580.3 248.9C591 244.5 602.2 241.7 614 240.6C647.8 237.4 681 249.3 714.3 259.3C748.8 269.6 783.2 277.7 818.1 273.2C873.6 266.2 921.5 227.5 960 186C967.1 178.4 974 170.6 980.8 162.8C1011.2 127.9 1041 91.6 1078.9 65C1125.4 32.3 1189.3 18.9 1231.9 43.9" stroke="#B56FA9" stroke-miterlimit="10"/>
<path d="M-102 389C-66.8 357.7 -21.1 343.7 22.7 342C66.4 340.4 109.1 350.3 150.1 367.6C183.4 381.7 217.2 401.6 250.2 419.6C256.6 423.1 263.1 426.4 269.6 429.5C307 447.2 340.1 454.9 374.3 446.4C416.7 436 449.9 395.8 478.6 352.6C481.8 347.8 484.9 343 488 338.3C512.8 300.1 542.7 259.8 583.4 242.4C594.1 237.8 605.3 234.8 617.2 233.6C651.3 230 684.6 241.7 718.1 252.1C752.7 262.8 787.2 271.9 822.3 267.8C878.3 261.5 926.3 222.1 964.6 179.9C971.6 172.2 978.5 164.3 985.2 156.3C1015.4 120.8 1045.1 84.1 1083.4 57.5C1130.4 24.8 1195.8 12.7 1237.7 41" stroke="#AF6BAD" stroke-miterlimit="10"/>
<path d="M-105.4 383.6C-70.9 352 -26.4 336.2 17.3 332.3C60.9 328.4 104.4 335.8 146 351.2C179.9 363.7 213.9 382.4 246.4 400.9C252.7 404.5 259 408 265.4 411.3C302 430.5 334.9 442.4 370.4 436.5C415 429.1 450.5 389.3 480.5 346.3C483.8 341.6 487.1 336.8 490.3 332C515.9 294.1 545.9 253.6 586.6 235.5C597.3 230.7 608.6 227.6 620.5 226.1C654.8 222 688.3 233.6 721.9 244.5C756.6 255.6 791.2 265.6 826.6 262C883.1 256.4 931.3 216.3 969.4 173.5C976.4 165.7 983.2 157.6 989.9 149.6C1020 113.6 1049.5 76.3 1088.1 49.8C1135.5 17.2 1202.6 6.4 1243.8 37.9" stroke="#A968B2" stroke-miterlimit="10"/>
<path d="M-108.9 378.2C-75.2 346.4 -31.7 328.7 11.8 322.6C55.3 316.5 99.6 321.3 141.9 334.8C176.3 345.8 210.6 363.1 242.5 382.2C248.7 385.9 254.8 389.6 261 393.2C296.7 414 329.5 430.1 366.3 426.7C413.1 422.4 451 382.9 482.2 340.1C485.6 335.4 489 330.6 492.3 325.9C518.7 288.2 548.8 247.6 589.5 228.9C600.2 224 611.5 220.6 623.5 219C658 214.4 691.7 226 725.5 237.2C760.2 248.7 795 259.7 830.6 256.6C887.6 251.7 935.9 210.9 973.8 167.4C980.7 159.4 987.5 151.3 994.2 143.1C1024.1 106.5 1053.5 68.8 1092.4 42.3C1140.2 9.8 1208.9 0.199995 1249.4 35" stroke="#A364B6" stroke-miterlimit="10"/>
<path d="M-112.3 372.8C-79.3 340.7 -37 321.3 6.5 312.9C49.9 304.5 94.9 306.8 137.9 318.4C172.9 327.9 207.3 343.9 238.8 363.6C244.9 367.4 250.9 371.3 256.9 375.1C291.8 397.4 324.4 417.8 362.5 416.9C411.5 415.8 451.7 376.5 484.2 333.9C487.8 329.2 491.3 324.5 494.7 319.8C521.9 282.3 552.1 241.5 592.7 222.2C603.4 217.1 614.7 213.5 626.7 211.8C661.5 206.7 695.3 218.2 729.2 229.8C764 241.7 798.9 253.7 834.8 251C892.4 246.7 940.8 205.2 978.4 161.1C985.3 153 992 144.8 998.7 136.4C1028.5 99.3 1057.7 61 1097 34.6C1145.2 2.2 1215.6 -6.1 1255.3 31.9" stroke="#9C60BB" stroke-miterlimit="10"/>
<path d="M-115.8 367.4C-83.6 335 -42.4 313.8 1 303.1C44.3 292.4 90.1 292.2 133.7 301.9C169.3 309.8 203.9 324.6 234.8 344.8C240.7 348.7 246.6 352.7 252.5 356.8C286.6 380.6 319 405.3 358.4 406.8C409.5 408.8 452.2 369.7 485.9 327.5C489.6 322.8 493.2 318.2 496.7 313.5C524.6 276.2 555.1 235.3 595.6 215.4C606.3 210.2 617.6 206.4 629.7 204.5C664.7 199 698.7 210.3 732.8 222.3C767.7 234.6 802.7 247.6 838.9 245.4C897 241.8 945.6 199.6 982.9 154.8C989.7 146.6 996.4 138.2 1003 129.8C1032.6 92.1 1061.6 53.4 1101.3 26.9C1149.9 -5.50001 1221.9 -12.4 1260.9 28.8" stroke="#965CBF" stroke-miterlimit="10"/>
<path d="M-119.2 362C-30.6 270.2 125.7 254.2 231.1 326.2C270.8 353.3 306.7 392.4 354.6 397.1C413.6 402.9 462.8 354.3 499.1 307.5C535.4 260.7 574.6 207.4 633.1 197.4C704.3 185.2 771.2 243.5 843.3 239.9C901.9 237 950.6 194.1 987.8 148.7C1025 103.3 1057.2 51.7 1106.2 19.5C1155.2 -12.8 1228.9 -18.5 1267.2 26" stroke="#9058C4" stroke-miterlimit="10"/>
<path d="M-113.9 381.3C-27.2 287.6 128.4 268.1 235.5 337.1C275.8 363.1 312.5 401.1 360.4 404.7C407.8 408.3 448.3 377.1 480.5 340.1C488.4 331 495.7 321.6 502.6 312.3C523.3 284.3 544.7 254.1 570.4 231.4C588.3 215.7 608.4 203.6 631.7 198.5C654.6 193.5 677.3 195.9 700.1 201.4C746.3 212.3 792.8 236.1 841.2 234.6C892.8 233 936.8 202.8 972.6 167.2C977.5 162.4 982.2 157.5 986.7 152.5C1015.5 121.1 1041.8 86.3 1074.4 57.6C1084.9 48.4 1096 39.8 1108.1 32.2C1157.6 1 1230.1 -6.49999 1267.7 32.6" stroke="#8C5BC7" stroke-miterlimit="10"/>
<path d="M-108.5 400.5C-23.7 304.9 131.2 281.8 239.9 348C280.8 372.9 318.4 409.8 366.3 412.3C413.6 414.8 453.6 382.8 484.9 345.3C492.5 336.1 499.7 326.6 506.3 317.1C526.2 288.6 546.6 258.1 571.4 234.7C588.6 218.5 607.9 205.7 630.6 199.7C652.8 193.7 675 194.9 697.7 199.2C743.7 207.8 790.9 230 839.4 229.4C890.9 228.7 935 201.8 971.4 169.8C976.3 165.5 981.1 161 985.8 156.6C1015.3 128.2 1042.6 96.4 1076 69.5C1086.7 60.8 1098 52.7 1110.2 45.3C1160.2 15.2 1231.5 5.8 1268.5 39.5" stroke="#895ECA" stroke-miterlimit="10"/>
<path d="M-103.2 419.7C-20.3 322.2 134 295.5 244.3 358.9C285.7 382.7 324.2 418.5 372.1 419.9C419.4 421.4 458.8 388.6 489.2 350.6C496.6 341.3 503.5 331.6 509.9 321.9C529.1 293 548.5 262 572.2 237.9C588.6 221.2 607.3 207.8 629.2 200.8C650.8 193.8 672.5 193.8 695 196.9C740.7 203.1 788.6 223.7 837.3 224C888.8 224.2 933 200.7 970 172.2C975 168.3 979.9 164.4 984.7 160.4C1015 135 1043.2 106.2 1077.3 81C1088.3 72.9 1099.8 65.1 1112.1 58.1C1162.6 29.1 1232.7 17.9 1269 46.1" stroke="#8560CE" stroke-miterlimit="10"/>
<path d="M-97.8 439C-16.9 339.7 136.8 309.4 248.8 369.8C290.8 392.6 330.1 427.2 378 427.5C425.2 427.9 464.2 394.4 493.5 355.8C500.7 346.3 507.4 336.5 513.5 326.7C532 297.4 550.3 266 573.1 241.2C588.8 224 606.8 210 628 202C648.9 194.1 670.2 192.8 692.5 194.7C738 198.6 786.6 217.6 835.3 218.8C886.7 219.9 931 199.8 968.7 174.7C973.8 171.3 978.8 167.8 983.7 164.3C1014.7 142 1044 116.1 1078.8 92.6C1090 85 1101.7 77.7 1114.1 70.9C1165.1 43 1234 29.9 1269.7 52.7" stroke="#8263D1" stroke-miterlimit="10"/>
<path d="M-92.5 458.2C-13.5 357 139.5 323.1 253.2 380.7C295.8 402.4 335.9 436 383.8 435.2C430.9 434.5 469.4 400.2 497.8 361.1C504.8 351.5 511.2 341.5 517.1 331.6C534.9 301.8 552.2 270.1 573.9 244.5C588.9 226.9 606.1 212.1 626.6 203.1C646.8 194.2 667.7 191.7 689.8 192.4C735.2 193.9 784.3 211.5 833.2 213.5C884.5 215.6 929 198.7 967.3 177.2C972.5 174.3 977.6 171.3 982.6 168.2C1014.3 148.9 1044.6 126 1080.2 104.2C1091.6 97.2 1103.5 90.3 1116.1 83.7C1167.6 56.9 1235.3 42 1270.4 59.3" stroke="#7E66D4" stroke-miterlimit="10"/>
<path d="M-87.2 477.5C-10.1 374.4 142.2 336.9 257.6 391.7C300.7 412.3 341.7 444.8 389.7 442.9C436.8 441.2 474.7 406.1 502.2 366.5C508.9 356.7 515.1 346.6 520.8 336.5C537.9 306.3 554.2 274.2 574.9 247.8C589.1 229.7 605.7 214.3 625.5 204.3C645.1 194.5 665.5 190.6 687.4 190.2C732.6 189.3 782.4 205.4 831.4 208.2C882.7 211.2 927.2 197.7 966.2 179.6C971.5 177.2 976.7 174.6 981.8 172.1C1014.2 155.8 1045.5 135.9 1081.8 115.9C1093.5 109.5 1105.6 102.9 1118.2 96.7C1170.2 71 1236.7 54.2 1271.1 66.2" stroke="#7B69D7" stroke-miterlimit="10"/>
<path d="M-81.8 496.7C-6.60001 391.7 145 350.7 262.1 402.5C305.8 422 347.6 453.4 395.6 450.4C442.6 447.6 480 411.8 506.5 371.6C513 361.7 519 351.4 524.4 341.2C540.7 310.6 556 278.1 575.7 251C589.2 232.4 605.1 216.3 624.1 205.4C643 194.6 663 189.5 684.8 187.9C729.8 184.5 780.2 199.2 829.4 202.9C880.6 206.8 925.3 196.7 964.9 182.1C970.3 180.1 975.6 178.1 980.8 176C1013.9 162.7 1046.2 145.8 1083.3 127.5C1095.2 121.6 1107.5 115.5 1120.2 109.5C1172.7 84.9 1238 66.2 1271.8 72.8" stroke="#776BDA" stroke-miterlimit="10"/>
<path d="M-76.5 515.9C-3.2 409 147.7 364.4 266.5 413.4C310.7 431.8 353.4 462.1 401.4 458C448.4 454.1 485.2 417.5 510.8 376.9C517.1 366.8 522.8 356.4 528 346C543.6 314.9 557.9 282.1 576.6 254.2C589.4 235.2 604.5 218.4 622.9 206.5C641.1 194.7 660.7 188.3 682.3 185.6C727.1 179.8 778.2 192.9 827.5 197.5C878.7 202.3 923.4 195.5 963.6 184.5C969.1 183 974.5 181.5 979.8 179.8C1013.6 169.5 1046.9 155.6 1084.7 139C1096.8 133.7 1109.3 128 1122.2 122.3C1175.2 98.8 1239.3 78.3 1272.4 79.4" stroke="#746EDD" stroke-miterlimit="10"/>
<path d="M-71.1 535.2C0.299995 426.4 150.5 378.2 270.9 424.3C315.7 441.6 359.3 470.8 407.3 465.6C454.2 460.6 490.6 423.3 515.2 382.1C521.3 371.9 526.7 361.4 531.7 350.8C546.6 319.3 559.9 286.1 577.5 257.5C589.5 238 604 220.5 621.7 207.7C639.3 194.9 658.4 187.3 679.8 183.4C724.4 175.2 776.1 186.8 825.6 192.3C876.7 198 921.5 194.6 962.4 187C968 186 973.5 184.9 978.9 183.8C1013.5 176.5 1047.7 165.6 1086.3 150.8C1098.7 146 1111.3 140.8 1124.3 135.3C1177.7 112.8 1240.7 90.5 1273.2 86.2" stroke="#7171E1" stroke-miterlimit="10"/>
<path d="M-65.8 554.4C3.6 443.7 153.2 392 275.3 435.2C320.7 451.4 365.1 479.5 413.1 473.2C460 467.2 495.8 429.1 519.5 387.3C525.4 376.9 530.6 366.3 535.3 355.6C549.5 323.7 561.7 290.1 578.4 260.7C589.7 240.8 603.5 222.6 620.4 208.8C637.3 195.1 655.9 186.1 677.2 181C721.6 170.4 774 180.5 823.5 186.9C874.5 193.5 919.5 193.5 961 189.4C966.7 188.9 972.3 188.3 977.8 187.6C1013.1 183.3 1048.4 175.4 1087.7 162.3C1100.3 158.1 1113.2 153.2 1126.3 148C1180.2 126.6 1242 102.5 1273.8 92.8" stroke="#6D74E4" stroke-miterlimit="10"/>
<path d="M-60.5 573.7C7.1 461.1 156 405.8 279.7 446.1C325.6 461.2 370.9 488.3 418.9 480.9C465.7 473.8 501 434.9 523.7 392.7C529.3 382.2 534.3 371.4 538.8 360.5C552.3 328.1 563.5 294.2 579.2 264.1C589.8 243.7 602.8 224.8 619.1 210.1C635.3 195.4 653.5 185.2 674.6 178.9C718.8 165.8 771.8 174.4 821.5 181.7C872.5 189.2 917.5 192.5 959.7 192C965.4 191.9 971.2 191.8 976.8 191.6C1012.8 190.3 1049.1 185.4 1089.1 174C1101.9 170.3 1115 165.9 1128.2 161C1182.6 140.7 1243.2 114.7 1274.4 99.6" stroke="#6A77E7" stroke-miterlimit="10"/>
<path d="M-55.1 592.9C10.5 478.4 158.8 419.5 284.2 457C330.7 471 376.8 497 424.8 488.5C471.6 480.3 506.3 440.7 528.1 397.9C533.5 387.2 538.2 376.3 542.5 365.3C555.2 332.5 565.5 298.2 580.1 267.3C590 246.4 602.3 226.8 617.8 211.1C633.4 195.4 651.1 183.9 672 176.5C716 160.9 769.7 168.1 819.5 176.3C870.4 184.7 915.6 191.4 958.4 194.3C964.2 194.7 970.1 195.1 975.9 195.3C1012.6 197 1049.9 195.1 1090.7 185.4C1103.8 182.3 1117 178.3 1130.4 173.6C1185.3 154.4 1244.7 126.6 1275.3 106" stroke="#6679EA" stroke-miterlimit="10"/>
<path d="M-49.8 612.1C13.9 495.8 161.5 433.3 288.6 467.9C335.7 480.8 382.6 505.7 430.7 496.1C477.4 486.9 511.6 446.5 532.5 403.2C537.7 392.4 542.2 381.3 546.2 370.2C558.2 337 567.5 302.3 581.1 270.6C590.3 249.3 601.8 229 616.7 212.3C631.6 195.6 648.9 182.9 669.6 174.3C713.4 156.3 767.7 162 817.7 171C868.6 180.2 913.8 190.3 957.3 196.8C963.2 197.7 969.1 198.5 975.1 199.3C1012.5 204 1050.8 205.1 1092.3 197.2C1105.6 194.6 1119 191 1132.5 186.6C1187.9 168.5 1246.1 138.8 1276 112.8" stroke="#637CED" stroke-miterlimit="10"/>
<path d="M-44.4 631.4C17.3 513.1 164.2 447.1 293 478.8C340.6 490.6 388.4 514.4 436.5 503.7C483.2 493.4 516.9 452.3 536.8 408.4C541.8 397.4 546 386.2 549.8 374.9C561.1 341.2 569.4 306.2 581.9 273.8C590.3 252 601.1 231 615.4 213.4C629.6 195.7 646.5 181.7 667 172C710.6 151.5 765.6 155.6 815.7 165.7C866.5 175.7 911.9 189.3 955.9 199.3C961.9 200.7 967.9 202 974 203.2C1012.1 210.9 1051.4 215 1093.7 208.8C1107.2 206.8 1120.9 203.6 1134.5 199.5C1190.4 182.5 1247.4 151 1276.7 119.6" stroke="#5F7FF0" stroke-miterlimit="10"/>
<path d="M-39.1 650.6C20.8 530.4 167 460.8 297.4 489.7C345.6 500.4 394.2 523.1 442.3 511.3C488.9 499.9 522.1 458 541 413.6C545.7 402.5 549.7 391.1 553.3 379.7C563.9 345.6 571.2 310.2 582.7 277C590.4 254.8 600.5 233 614 214.5C627.5 195.8 644 180.5 664.3 169.7C707.7 146.7 763.4 149.4 813.6 160.4C864.4 171.3 909.8 188.3 954.5 201.7C960.6 203.5 966.7 205.3 972.9 207C1011.7 217.8 1052 224.8 1095.1 220.3C1108.9 218.8 1122.7 216.1 1136.4 212.2C1192.8 196.3 1248.6 162.9 1277.2 126.1" stroke="#5C82F3" stroke-miterlimit="10"/>
<path d="M-33.8 669.9C24.2 547.8 169.7 474.6 301.9 500.7C350.7 510.4 400.2 532 448.3 519.1C494.9 506.7 527.5 464 545.5 419.1C550 407.8 553.8 396.3 557.1 384.7C567 350.2 573.3 314.4 583.7 280.5C590.7 257.8 600.1 235.4 612.9 215.9C625.7 196.3 641.7 179.7 661.9 167.7C705.1 142.2 761.4 143.5 811.8 155.3C862.5 167.1 908.1 187.4 953.4 204.4C959.6 206.7 965.8 209 972.1 211.2C1011.7 225 1053 235 1096.7 232.3C1110.7 231.4 1124.7 229.1 1138.5 225.5C1195.4 210.7 1250 175.5 1278 133.2" stroke="#5884F7" stroke-miterlimit="10"/>
<path d="M-28.4 689.1C27.6 565.1 172.5 488.4 306.3 511.6C355.6 520.2 406 540.7 454.1 526.7C500.6 513.2 532.7 469.8 549.8 424.3C554.1 412.9 557.6 401.3 560.7 389.5C569.8 354.6 575.2 318.4 584.6 283.7C590.9 260.6 599.5 237.4 611.6 217C623.8 196.4 639.3 178.5 659.4 165.4C702.3 137.4 759.4 137.3 809.8 150C860.5 162.7 906.1 186.4 952.1 206.8C958.4 209.6 964.7 212.3 971.1 215C1011.4 231.8 1053.7 244.8 1098.2 243.8C1112.4 243.5 1126.6 241.5 1140.6 238.2C1198 224.5 1251.4 187.4 1278.8 139.7" stroke="#5587FA" stroke-miterlimit="10"/>
<path d="M-23.1 708.3C31 582.5 175.2 502.2 310.7 522.4C360.6 529.9 411.8 549.3 459.9 534.2C506.4 519.6 537.9 475.4 554.1 429.5C570.3 383.6 574.2 334.3 585.4 286.9C596.6 239.5 617.1 191.3 656.8 163.1C699.5 132.7 757.2 131 807.8 144.7C858.4 158.3 904.1 185.4 950.8 209.3C997.4 233.2 1047.2 254.7 1099.6 255.4C1173.5 256.5 1246.2 212.4 1279.3 146.4" stroke="#518AFD" stroke-miterlimit="10"/>
</g>
<mask id="mask4_3_307" style="mask-type:luminance" maskUnits="userSpaceOnUse" x="0" y="0" width="1200" height="800">
<path d="M1200 0H0V800H1200V0Z" fill="white"/>
</mask>
<g mask="url(#mask4_3_307)">
<path d="M204 378C205.105 378 206 377.105 206 376C206 374.895 205.105 374 204 374C202.895 374 202 374.895 202 376C202 377.105 202.895 378 204 378Z" fill="#A1D4E6"/>
<path d="M181 378C182.105 378 183 377.105 183 376C183 374.895 182.105 374 181 374C179.895 374 179 374.895 179 376C179 377.105 179.895 378 181 378Z" fill="#A1D4E6"/>
<path d="M158 378C159.105 378 160 377.105 160 376C160 374.895 159.105 374 158 374C156.895 374 156 374.895 156 376C156 377.105 156.895 378 158 378Z" fill="#A1D4E6"/>
<path d="M135 378C136.105 378 137 377.105 137 376C137 374.895 136.105 374 135 374C133.895 374 133 374.895 133 376C133 377.105 133.895 378 135 378Z" fill="#A1D4E6"/>
<path d="M112 378C113.105 378 114 377.105 114 376C114 374.895 113.105 374 112 374C110.895 374 110 374.895 110 376C110 377.105 110.895 378 112 378Z" fill="#A1D4E6"/>
<path d="M204 353C205.105 353 206 352.105 206 351C206 349.895 205.105 349 204 349C202.895 349 202 349.895 202 351C202 352.105 202.895 353 204 353Z" fill="#A1D4E6"/>
<path d="M181 353C182.105 353 183 352.105 183 351C183 349.895 182.105 349 181 349C179.895 349 179 349.895 179 351C179 352.105 179.895 353 181 353Z" fill="#A1D4E6"/>
<path d="M158 353C159.105 353 160 352.105 160 351C160 349.895 159.105 349 158 349C156.895 349 156 349.895 156 351C156 352.105 156.895 353 158 353Z" fill="#A1D4E6"/>
<path d="M135 353C136.105 353 137 352.105 137 351C137 349.895 136.105 349 135 349C133.895 349 133 349.895 133 351C133 352.105 133.895 353 135 353Z" fill="#A1D4E6"/>
<path d="M112 353C113.105 353 114 352.105 114 351C114 349.895 113.105 349 112 349C110.895 349 110 349.895 110 351C110 352.105 110.895 353 112 353Z" fill="#A1D4E6"/>
<path d="M204 328C205.105 328 206 327.105 206 326C206 324.895 205.105 324 204 324C202.895 324 202 324.895 202 326C202 327.105 202.895 328 204 328Z" fill="#A1D4E6"/>
<path d="M181 328C182.105 328 183 327.105 183 326C183 324.895 182.105 324 181 324C179.895 324 179 324.895 179 326C179 327.105 179.895 328 181 328Z" fill="#A1D4E6"/>
<path d="M158 328C159.105 328 160 327.105 160 326C160 324.895 159.105 324 158 324C156.895 324 156 324.895 156 326C156 327.105 156.895 328 158 328Z" fill="#A1D4E6"/>
<path d="M135 328C136.105 328 137 327.105 137 326C137 324.895 136.105 324 135 324C133.895 324 133 324.895 133 326C133 327.105 133.895 328 135 328Z" fill="#A1D4E6"/>
<path d="M112 328C113.105 328 114 327.105 114 326C114 324.895 113.105 324 112 324C110.895 324 110 324.895 110 326C110 327.105 110.895 328 112 328Z" fill="#A1D4E6"/>
<path d="M204 303C205.105 303 206 302.105 206 301C206 299.895 205.105 299 204 299C202.895 299 202 299.895 202 301C202 302.105 202.895 303 204 303Z" fill="#A1D4E6"/>
<path d="M181 303C182.105 303 183 302.105 183 301C183 299.895 182.105 299 181 299C179.895 299 179 299.895 179 301C179 302.105 179.895 303 181 303Z" fill="#A1D4E6"/>
<path d="M158 303C159.105 303 160 302.105 160 301C160 299.895 159.105 299 158 299C156.895 299 156 299.895 156 301C156 302.105 156.895 303 158 303Z" fill="#A1D4E6"/>
<path d="M135 303C136.105 303 137 302.105 137 301C137 299.895 136.105 299 135 299C133.895 299 133 299.895 133 301C133 302.105 133.895 303 135 303Z" fill="#A1D4E6"/>
<path d="M112 303C113.105 303 114 302.105 114 301C114 299.895 113.105 299 112 299C110.895 299 110 299.895 110 301C110 302.105 110.895 303 112 303Z" fill="#A1D4E6"/>
<path d="M204 278C205.105 278 206 277.105 206 276C206 274.895 205.105 274 204 274C202.895 274 202 274.895 202 276C202 277.105 202.895 278 204 278Z" fill="#A1D4E6"/>
<path d="M181 278C182.105 278 183 277.105 183 276C183 274.895 182.105 274 181 274C179.895 274 179 274.895 179 276C179 277.105 179.895 278 181 278Z" fill="#A1D4E6"/>
<path d="M158 278C159.105 278 160 277.105 160 276C160 274.895 159.105 274 158 274C156.895 274 156 274.895 156 276C156 277.105 156.895 278 158 278Z" fill="#A1D4E6"/>
<path d="M135 278C136.105 278 137 277.105 137 276C137 274.895 136.105 274 135 274C133.895 274 133 274.895 133 276C133 277.105 133.895 278 135 278Z" fill="#A1D4E6"/>
<path d="M112 278C113.105 278 114 277.105 114 276C114 274.895 113.105 274 112 274C110.895 274 110 274.895 110 276C110 277.105 110.895 278 112 278Z" fill="#A1D4E6"/>
<path d="M204 253C205.105 253 206 252.105 206 251C206 249.895 205.105 249 204 249C202.895 249 202 249.895 202 251C202 252.105 202.895 253 204 253Z" fill="#A1D4E6"/>
<path d="M181 253C182.105 253 183 252.105 183 251C183 249.895 182.105 249 181 249C179.895 249 179 249.895 179 251C179 252.105 179.895 253 181 253Z" fill="#A1D4E6"/>
<path d="M158 253C159.105 253 160 252.105 160 251C160 249.895 159.105 249 158 249C156.895 249 156 249.895 156 251C156 252.105 156.895 253 158 253Z" fill="#A1D4E6"/>
<path d="M135 253C136.105 253 137 252.105 137 251C137 249.895 136.105 249 135 249C133.895 249 133 249.895 133 251C133 252.105 133.895 253 135 253Z" fill="#A1D4E6"/>
<path d="M112 253C113.105 253 114 252.105 114 251C114 249.895 113.105 249 112 249C110.895 249 110 249.895 110 251C110 252.105 110.895 253 112 253Z" fill="#A1D4E6"/>
<path d="M204 228C205.105 228 206 227.105 206 226C206 224.895 205.105 224 204 224C202.895 224 202 224.895 202 226C202 227.105 202.895 228 204 228Z" fill="#A1D4E6"/>
<path d="M181 228C182.105 228 183 227.105 183 226C183 224.895 182.105 224 181 224C179.895 224 179 224.895 179 226C179 227.105 179.895 228 181 228Z" fill="#A1D4E6"/>
<path d="M158 228C159.105 228 160 227.105 160 226C160 224.895 159.105 224 158 224C156.895 224 156 224.895 156 226C156 227.105 156.895 228 158 228Z" fill="#A1D4E6"/>
<path d="M135 228C136.105 228 137 227.105 137 226C137 224.895 136.105 224 135 224C133.895 224 133 224.895 133 226C133 227.105 133.895 228 135 228Z" fill="#A1D4E6"/>
<path d="M112 228C113.105 228 114 227.105 114 226C114 224.895 113.105 224 112 224C110.895 224 110 224.895 110 226C110 227.105 110.895 228 112 228Z" fill="#A1D4E6"/>
<path d="M204 203C205.105 203 206 202.105 206 201C206 199.895 205.105 199 204 199C202.895 199 202 199.895 202 201C202 202.105 202.895 203 204 203Z" fill="#A1D4E6"/>
<path d="M181 203C182.105 203 183 202.105 183 201C183 199.895 182.105 199 181 199C179.895 199 179 199.895 179 201C179 202.105 179.895 203 181 203Z" fill="#A1D4E6"/>
<path d="M158 203C159.105 203 160 202.105 160 201C160 199.895 159.105 199 158 199C156.895 199 156 199.895 156 201C156 202.105 156.895 203 158 203Z" fill="#A1D4E6"/>
<path d="M135 203C136.105 203 137 202.105 137 201C137 199.895 136.105 199 135 199C133.895 199 133 199.895 133 201C133 202.105 133.895 203 135 203Z" fill="#A1D4E6"/>
<path d="M112 203C113.105 203 114 202.105 114 201C114 199.895 113.105 199 112 199C110.895 199 110 199.895 110 201C110 202.105 110.895 203 112 203Z" fill="#A1D4E6"/>
<path d="M204 178C205.105 178 206 177.105 206 176C206 174.895 205.105 174 204 174C202.895 174 202 174.895 202 176C202 177.105 202.895 178 204 178Z" fill="#A1D4E6"/>
<path d="M181 178C182.105 178 183 177.105 183 176C183 174.895 182.105 174 181 174C179.895 174 179 174.895 179 176C179 177.105 179.895 178 181 178Z" fill="#A1D4E6"/>
<path d="M158 178C159.105 178 160 177.105 160 176C160 174.895 159.105 174 158 174C156.895 174 156 174.895 156 176C156 177.105 156.895 178 158 178Z" fill="#A1D4E6"/>
<path d="M135 178C136.105 178 137 177.105 137 176C137 174.895 136.105 174 135 174C133.895 174 133 174.895 133 176C133 177.105 133.895 178 135 178Z" fill="#A1D4E6"/>
<path d="M112 178C113.105 178 114 177.105 114 176C114 174.895 113.105 174 112 174C110.895 174 110 174.895 110 176C110 177.105 110.895 178 112 178Z" fill="#A1D4E6"/>
<path d="M204 153C205.105 153 206 152.105 206 151C206 149.895 205.105 149 204 149C202.895 149 202 149.895 202 151C202 152.105 202.895 153 204 153Z" fill="#A1D4E6"/>
<path d="M181 153C182.105 153 183 152.105 183 151C183 149.895 182.105 149 181 149C179.895 149 179 149.895 179 151C179 152.105 179.895 153 181 153Z" fill="#A1D4E6"/>
<path d="M158 153C159.105 153 160 152.105 160 151C160 149.895 159.105 149 158 149C156.895 149 156 149.895 156 151C156 152.105 156.895 153 158 153Z" fill="#A1D4E6"/>
<path d="M135 153C136.105 153 137 152.105 137 151C137 149.895 136.105 149 135 149C133.895 149 133 149.895 133 151C133 152.105 133.895 153 135 153Z" fill="#A1D4E6"/>
<path d="M112 153C113.105 153 114 152.105 114 151C114 149.895 113.105 149 112 149C110.895 149 110 149.895 110 151C110 152.105 110.895 153 112 153Z" fill="#A1D4E6"/>
<path d="M204 128C205.105 128 206 127.105 206 126C206 124.895 205.105 124 204 124C202.895 124 202 124.895 202 126C202 127.105 202.895 128 204 128Z" fill="#A1D4E6"/>
<path d="M181 128C182.105 128 183 127.105 183 126C183 124.895 182.105 124 181 124C179.895 124 179 124.895 179 126C179 127.105 179.895 128 181 128Z" fill="#A1D4E6"/>
<path d="M158 128C159.105 128 160 127.105 160 126C160 124.895 159.105 124 158 124C156.895 124 156 124.895 156 126C156 127.105 156.895 128 158 128Z" fill="#A1D4E6"/>
<path d="M135 128C136.105 128 137 127.105 137 126C137 124.895 136.105 124 135 124C133.895 124 133 124.895 133 126C133 127.105 133.895 128 135 128Z" fill="#A1D4E6"/>
<path d="M112 128C113.105 128 114 127.105 114 126C114 124.895 113.105 124 112 124C110.895 124 110 124.895 110 126C110 127.105 110.895 128 112 128Z" fill="#A1D4E6"/>
</g>
</g>
<defs>
<clipPath id="clip0_3_307">
<rect width="1200" height="800" rx="40" fill="white"/>
</clipPath>
</defs>
</svg>
