<?xml version="1.0" encoding="utf-8"?>
<!-- Generator: Adobe Illustrator 27.5.0, SVG Export Plug-In . SVG Version: 6.00 Build 0)  -->
<svg version="1.1" id="Layer_1" xmlns="http://www.w3.org/2000/svg" xmlns:xlink="http://www.w3.org/1999/xlink" x="0px" y="0px"
	 viewBox="0 0 3000 1500" style="enable-background:new 0 0 3000 1500;" xml:space="preserve">
<g>
	
		<radialGradient id="SVGID_1_" cx="1457.981" cy="766.7804" r="85.827" gradientTransform="matrix(25 0 0 25 -36000 -18000)" gradientUnits="userSpaceOnUse">
		<stop  offset="0" style="stop-color:#231F20"/>
		<stop  offset="1" style="stop-color:#000000"/>
	</radialGradient>
	<rect style="fill:url(#SVGID_1_);" width="3000" height="1500"/>
	<g>
		<path style="fill:#4037E6;" d="M1223.255,1150.025c2.99,0,5.407,2.44,5.407,5.42c0,3.003-2.417,5.42-5.407,5.42
			c-2.993,0-5.42-2.417-5.42-5.42C1217.835,1152.465,1220.262,1150.025,1223.255,1150.025z"/>
		<path style="fill:#FF1BFF;" d="M2288.452,1086.573c3.002,0,5.42,2.44,5.42,5.42c0,3.002-2.417,5.445-5.42,5.445
			c-3.002,0-5.42-2.443-5.42-5.445C2283.032,1089.012,2285.45,1086.573,2288.452,1086.573z"/>
		<path style="fill:#0000A9;" d="M737.255,1025.123c3.065,0,5.543,2.49,5.543,5.542c0,3.075-2.478,5.54-5.543,5.54
			c-3.063,0-5.552-2.465-5.552-5.54C731.702,1027.613,734.192,1025.123,737.255,1025.123z"/>
		<path style="fill:#0000C7;" d="M442.97,803.175c3.075,0,5.577,2.49,5.577,5.565c0,3.1-2.503,5.59-5.577,5.59
			c-3.078,0-5.568-2.49-5.568-5.59C437.402,805.665,439.892,803.175,442.97,803.175z"/>
		<path style="fill:#8D00C0;" d="M1600.537,972.972c3.15,0,5.688,2.54,5.688,5.69c0,3.125-2.538,5.663-5.688,5.663
			c-3.125,0-5.665-2.538-5.665-5.663C1594.872,975.513,1597.412,972.972,1600.537,972.972z"/>
		<g>
			<path style="opacity:0.578;fill:#FA00FA;" d="M2103.417,906.42c3.15,0,5.69,2.54,5.69,5.665c0,3.15-2.54,5.688-5.69,5.688
				c-3.125,0-5.662-2.538-5.662-5.688C2097.755,908.96,2100.292,906.42,2103.417,906.42z"/>
		</g>
		<circle style="fill:#4B00BC;" cx="1217.492" cy="884.472" r="5.688"/>
		<g>
			<path style="opacity:0.8061;fill:#F900F3;" d="M2332.592,971.705c3.125,0,5.69,2.563,5.69,5.712c0,3.125-2.565,5.688-5.69,5.688
				c-3.15,0-5.688-2.563-5.688-5.688C2326.905,974.268,2329.442,971.705,2332.592,971.705z"/>
		</g>
		<path style="fill:#0B0039;" d="M535.45,1001c3.197,0,5.797,2.59,5.797,5.787c0,3.198-2.6,5.785-5.797,5.785
			c-3.2,0-5.788-2.588-5.788-5.785C529.662,1003.59,532.25,1001,535.45,1001z"/>
		<g>
			<path style="opacity:0.3589;fill:#B200F4;" d="M2184.205,777.49c3.198,0,5.785,2.588,5.785,5.788
				c0,3.197-2.587,5.785-5.785,5.785c-3.2,0-5.788-2.588-5.788-5.785C2178.417,780.078,2181.005,777.49,2184.205,777.49z"/>
		</g>
		<g>
			<circle style="opacity:0.2656;fill:#001FFF;" cx="1282.63" cy="333.057" r="5.835"/>
		</g>
		<g>
			<path style="opacity:0.3774;fill:#00FF00;" d="M104.577,1134.155c3.248,0,5.873,2.612,5.873,5.86
				c0,3.247-2.625,5.882-5.873,5.882c-3.248,0-5.873-2.635-5.873-5.882C98.705,1136.767,101.33,1134.155,104.577,1134.155z"/>
		</g>
		<g>
			<path style="opacity:0.4241;fill:#6C00F1;" d="M1790.455,509.68c3.27,0,5.907,2.65,5.907,5.908c0,3.26-2.637,5.897-5.907,5.897
				c-3.248,0-5.91-2.638-5.91-5.897C1784.545,512.33,1787.207,509.68,1790.455,509.68z"/>
		</g>
		<g>
			<path style="opacity:0.2978;fill:#6000FF;" d="M1790.527,256.47c3.248,0,5.907,2.638,5.907,5.908c0,3.26-2.66,5.897-5.907,5.897
				c-3.273,0-5.907-2.637-5.907-5.897C1784.62,259.108,1787.255,256.47,1790.527,256.47z"/>
		</g>
		<path style="fill:#91005A;" d="M1330.2,897.802c3.272,0,5.92,2.663,5.92,5.932c0,3.273-2.648,5.932-5.92,5.932
			c-3.283,0-5.933-2.66-5.933-5.932C1324.267,900.465,1326.917,897.802,1330.2,897.802z"/>
		<g>
			<path style="opacity:0.5475;fill:#5F60FF;" d="M1525.927,314.185c3.273,0,5.932,2.66,5.932,5.932c0,3.283-2.66,5.932-5.932,5.932
				c-3.283,0-5.945-2.65-5.945-5.932C1519.982,316.845,1522.645,314.185,1525.927,314.185z"/>
		</g>
		<g>
			<path style="opacity:0.4557;fill:#69AC00;" d="M685.057,1234.642c3.285,0,5.945,2.663,5.945,5.958
				c0,3.273-2.66,5.932-5.945,5.932c-3.27,0-5.932-2.66-5.932-5.932C679.125,1237.305,681.787,1234.642,685.057,1234.642z"/>
		</g>
		<g>
			<path style="opacity:0.5663;fill:#083E29;" d="M980.982,916.285c3.295,0,5.968,2.66,5.968,5.98c0,3.297-2.673,5.957-5.968,5.957
				c-3.298,0-5.97-2.66-5.97-5.957C975.012,918.945,977.685,916.285,980.982,916.285z"/>
		</g>
		<path style="fill:#46000F;" d="M872.412,959.497c3.307,0,5.992,2.685,5.992,5.98c0,3.323-2.685,5.983-5.992,5.983
			s-5.982-2.66-5.982-5.983C866.43,962.182,869.105,959.497,872.412,959.497z"/>
		<g>
			<path style="opacity:0.3389;fill:#0A4670;" d="M1014.342,630.992c3.31,0,5.995,2.688,5.995,5.995s-2.685,5.992-5.995,5.992
				c-3.32,0-6.005-2.685-6.005-5.992S1011.022,630.992,1014.342,630.992z"/>
		</g>
		<g>
			<path style="opacity:0.6219;fill:#570070;" d="M1443.152,735.62c3.32,0,6.005,2.685,6.005,5.995c0,3.32-2.685,6.005-6.005,6.005
				c-3.32,0-6.008-2.685-6.008-6.005C1437.145,738.305,1439.832,735.62,1443.152,735.62z"/>
		</g>
		<path style="fill:#EA4E00;" d="M970.85,1342.09c3.32,0,6.005,2.685,6.005,6.005c0,3.32-2.685,6.008-6.005,6.008
			c-3.308,0-5.995-2.688-5.995-6.008C964.855,1344.775,967.542,1342.09,970.85,1342.09z"/>
		<g>
			<path style="opacity:0.5531;fill:#AE42FF;" d="M1962.035,306.97c3.323,0,6.008,2.698,6.008,6.018c0,3.32-2.685,6.02-6.008,6.02
				c-3.32,0-6.03-2.7-6.03-6.02C1956.005,309.668,1958.715,306.97,1962.035,306.97z"/>
		</g>
		<g>
			<path style="opacity:0.4991;fill:#5400A3;" d="M1457.74,522.4c3.333,0,6.03,2.697,6.03,6.03c0,3.32-2.697,6.018-6.03,6.018
				c-3.32,0-6.02-2.698-6.02-6.018C1451.72,525.097,1454.42,522.4,1457.74,522.4z"/>
		</g>
		<g>
			<circle style="opacity:0.4519;fill:#C000E0;" cx="2241.772" cy="460.547" r="6.055"/>
		</g>
		<g>
			<path style="opacity:0.6896;fill:#1C2400;" d="M742.627,951.49c3.358,0,6.078,2.71,6.078,6.078c0,3.345-2.72,6.08-6.078,6.08
				c-3.357,0-6.08-2.735-6.08-6.08C736.547,954.2,739.27,951.49,742.627,951.49z"/>
		</g>
		<g>
			<path style="opacity:0.2702;fill:#006B00;" d="M366.662,874.438c3.37,0,6.102,2.735,6.102,6.105c0,3.367-2.732,6.103-6.102,6.103
				s-6.103-2.735-6.103-6.103C360.56,877.172,363.292,874.438,366.662,874.438z"/>
		</g>
		<g>
			<path style="opacity:0.7878;fill:#DA0030;" d="M2484.155,1102.637c3.37,0,6.105,2.71,6.105,6.078c0,3.37-2.735,6.105-6.105,6.105
				c-3.37,0-6.103-2.735-6.103-6.105C2478.052,1105.348,2480.785,1102.637,2484.155,1102.637z"/>
		</g>
		<path style="fill:#6A0000;" d="M926.537,950c3.383,0,6.128,2.76,6.128,6.128c0,3.395-2.745,6.128-6.128,6.128
			c-3.38,0-6.115-2.732-6.115-6.128C920.422,952.76,923.157,950,926.537,950z"/>
		<g>
			<circle style="opacity:0.5363;fill:#6F00F7;" cx="1809.887" cy="151.538" r="6.127"/>
		</g>
		<g>
			<path style="opacity:0.3978;fill:#363F68;" d="M1105.577,446.765c3.407,0,6.165,2.76,6.165,6.165
				c0,3.393-2.757,6.152-6.165,6.152c-3.405,0-6.15-2.76-6.15-6.152C1099.427,449.525,1102.172,446.765,1105.577,446.765z"/>
		</g>
		<path style="fill:#F3A795;" d="M1840.65,457.397c3.417,0,6.175,2.77,6.175,6.178c0,3.405-2.758,6.165-6.175,6.165
			c-3.396,0-6.178-2.76-6.178-6.165C1834.472,460.168,1837.255,457.397,1840.65,457.397z"/>
		<g>
			<path style="opacity:0.692;fill:#FF0090;" d="M2647.607,632.448c3.418,0,6.2,2.782,6.2,6.212c0,3.43-2.782,6.2-6.2,6.2
				c-3.443,0-6.225-2.77-6.225-6.2C2641.382,635.23,2644.165,632.448,2647.607,632.448z"/>
		</g>
		<g>
			<path style="opacity:0.8411;fill:#EE00DC;" d="M2374.34,241.87c3.442,0,6.228,2.783,6.228,6.225c0,3.443-2.785,6.228-6.228,6.228
				s-6.225-2.785-6.225-6.228C2368.115,244.653,2370.897,241.87,2374.34,241.87z"/>
		</g>
		<g>
			<path style="opacity:0.9117;fill:#DF0058;" d="M2536.085,778.833c3.442,0,6.225,2.782,6.225,6.225s-2.782,6.227-6.225,6.227
				c-3.443,0-6.25-2.785-6.25-6.227S2532.642,778.833,2536.085,778.833z"/>
		</g>
		<g>
			<path style="opacity:0.4659;fill:#007B00;" d="M91.955,735.815c3.443,0,6.238,2.795,6.238,6.237c0,3.455-2.795,6.237-6.238,6.237
				c-3.455,0-6.25-2.782-6.25-6.237C85.705,738.61,88.5,735.815,91.955,735.815z"/>
		</g>
		<g>
			<path style="opacity:0.2313;fill:#9D0009;" d="M2341.797,992.138c3.465,0,6.275,2.81,6.275,6.25c0,3.467-2.81,6.25-6.275,6.25
				c-3.443,0-6.25-2.783-6.25-6.25C2335.547,994.948,2338.354,992.138,2341.797,992.138z"/>
		</g>
		<g>
			<path style="opacity:0.0509;fill:#008F00;" d="M282.837,855.763c3.465,0,6.285,2.807,6.285,6.272c0,3.468-2.82,6.3-6.285,6.3
				c-3.48,0-6.287-2.833-6.287-6.3C276.55,858.57,279.357,855.763,282.837,855.763z"/>
		</g>
		<g>
			<path style="opacity:0.4066;fill:#920033;" d="M2336.597,767.847c3.465,0,6.297,2.83,6.297,6.31c0,3.48-2.833,6.313-6.297,6.313
				c-3.493,0-6.325-2.832-6.325-6.313C2330.272,770.677,2333.104,767.847,2336.597,767.847z"/>
		</g>
		<g>
			<path style="opacity:0.9881;fill:#FF668A;" d="M2203.955,385.365c3.492,0,6.3,2.83,6.3,6.31c0,3.49-2.808,6.31-6.3,6.31
				c-3.49,0-6.323-2.82-6.323-6.31C2197.632,388.195,2200.465,385.365,2203.955,385.365z"/>
		</g>
		<g>
			<path style="opacity:0.6725;fill:#FF8137;" d="M2752.1,839.625c3.49,0,6.322,2.83,6.322,6.323c0,3.467-2.833,6.297-6.322,6.297
				c-3.493,0-6.323-2.83-6.323-6.297C2745.777,842.455,2748.607,839.625,2752.1,839.625z"/>
		</g>
		<g>
			<path style="opacity:0.272;fill:#ECA80F;" d="M1512.622,639.855c3.503,0,6.335,2.833,6.335,6.338c0,3.49-2.832,6.335-6.335,6.335
				c-3.505,0-6.335-2.845-6.335-6.335C1506.287,642.688,1509.117,639.855,1512.622,639.855z"/>
		</g>
		<g>
			<path style="opacity:0.5398;fill:#002F00;" d="M225.695,285.158c3.54,0,6.397,2.867,6.397,6.395c0,3.54-2.857,6.41-6.397,6.41
				c-3.54,0-6.408-2.87-6.408-6.41C219.287,288.025,222.155,285.158,225.695,285.158z"/>
		</g>
		<g>
			<path style="opacity:0.2198;fill:#008900;" d="M425.5,603.968c3.54,0,6.41,2.867,6.41,6.407s-2.87,6.41-6.41,6.41
				c-3.54,0-6.408-2.87-6.408-6.41S421.96,603.968,425.5,603.968z"/>
		</g>
		<g>
			<path style="opacity:0.9593;fill:#FF0078;" d="M2880.225,416.26c3.564,0,6.469,2.892,6.469,6.457c0,3.578-2.905,6.47-6.469,6.47
				c-3.565,0-6.47-2.892-6.47-6.47C2873.755,419.152,2876.66,416.26,2880.225,416.26z"/>
		</g>
		<g>
			<path style="opacity:0.7377;fill:#FF001B;" d="M2754.052,717.505c3.565,0,6.47,2.905,6.47,6.482c0,3.575-2.905,6.482-6.47,6.482
				c-3.587,0-6.495-2.907-6.495-6.482C2747.557,720.41,2750.465,717.505,2754.052,717.505z"/>
		</g>
		<g>
			<path style="opacity:0.7842;fill:#FF7F10;" d="M2685.572,689.795c3.613,0,6.518,2.918,6.518,6.518c0,3.602-2.905,6.52-6.518,6.52
				c-3.59,0-6.52-2.918-6.52-6.52C2679.052,692.713,2681.982,689.795,2685.572,689.795z"/>
		</g>
		<g>
			<path style="opacity:0.6314;fill:#FF003B;" d="M2906.25,375.147c3.687,0,6.665,2.978,6.665,6.665
				c0,3.672-2.978,6.652-6.665,6.652c-3.688,0-6.665-2.98-6.665-6.652C2899.585,378.125,2902.562,375.147,2906.25,375.147z"/>
		</g>
		<g>
			<g style="opacity:0.0157;">
				<path style="fill:#461BD1;" d="M1223.255,1157.935c-1.368,0-2.478-1.075-2.503-2.443l-5.762-270.97
					c-0.025-1.367,1.075-2.515,2.455-2.54c1.39,0.05,2.512,1.05,2.55,2.443l5.75,270.97c0.037,1.367-1.063,2.515-2.443,2.54
					C1223.302,1157.935,1223.267,1157.935,1223.255,1157.935z"/>
			</g>
		</g>
		<g>
			<g style="opacity:0.0797;">
				<path style="fill:#FF0DFF;" d="M2288.452,1094.507c-0.635,0-1.245-0.245-1.733-0.707l-185.035-179.908
					c-1.002-0.978-1.025-2.565-0.05-3.54c0.953-1.003,2.541-1.027,3.541-0.05l185.035,179.907c0.977,0.953,1,2.54,0.05,3.54
					C2289.745,1094.238,2289.112,1094.507,2288.452,1094.507z"/>
			</g>
		</g>
		<g>
			<g style="opacity:0.3568;">
				<path style="fill:#FF0DFF;" d="M2288.452,1094.507c-0.292,0-0.61-0.05-0.902-0.172c-1.271-0.487-1.93-1.953-1.418-3.222
					l44.118-114.6c0.512-1.293,1.952-1.927,3.245-1.44c1.27,0.49,1.93,1.955,1.417,3.222l-44.117,114.6
					C2290.405,1093.897,2289.452,1094.507,2288.452,1094.507z"/>
			</g>
		</g>
		<g>
			<g style="opacity:0.4474;">
				<path style="fill:#0000B8;" d="M737.242,1033.155c-0.523,0-1.048-0.148-1.5-0.49L441.467,810.742
					c-1.1-0.83-1.317-2.393-0.487-3.492c0.83-1.097,2.392-1.318,3.49-0.487l294.287,221.9c1.098,0.83,1.318,2.417,0.488,3.515
					C738.757,1032.813,738,1033.155,737.242,1033.155z"/>
			</g>
		</g>
		<g>
			<g style="opacity:0.4524;">
				<path style="fill:#050071;" d="M737.255,1033.155c-0.097,0-0.195,0-0.305,0l-201.793-23.878
					c-1.367-0.17-2.345-1.415-2.188-2.783c0.16-1.367,1.417-2.345,2.773-2.172l201.808,23.853c1.365,0.17,2.342,1.415,2.185,2.782
					C739.587,1032.228,738.5,1033.155,737.255,1033.155z"/>
			</g>
		</g>
		<g>
			<g style="opacity:0.4309;">
				<path style="fill:#050080;" d="M535.45,1009.302c-0.94,0-1.833-0.537-2.26-1.44l-92.48-198.047
					c-0.585-1.245-0.047-2.735,1.198-3.32c1.258-0.588,2.745-0.05,3.332,1.195l92.48,198.047c0.585,1.245,0.037,2.735-1.21,3.32
					C536.17,1009.227,535.802,1009.302,535.45,1009.302z"/>
			</g>
		</g>
		<g>
			<g style="opacity:0.3663;">
				<path style="fill:#6C00BE;" d="M1600.537,981.153c-0.195,0-0.39-0.025-0.587-0.073l-383.055-94.165
					c-1.342-0.342-2.16-1.685-1.832-3.027c0.33-1.343,1.698-2.172,3.027-1.833l383.057,94.165c1.343,0.343,2.147,1.685,1.83,3.028
					C1602.685,980.395,1601.66,981.153,1600.537,981.153z"/>
			</g>
		</g>
		<g>
			<path style="fill:#FA00F6;" d="M2332.592,979.907c-0.22,0-0.462-0.025-0.682-0.097l-229.175-65.307
				c-1.32-0.39-2.1-1.758-1.71-3.1c0.367-1.32,1.757-2.1,3.077-1.71L2333.277,975c1.317,0.39,2.098,1.758,1.708,3.1
				C2334.667,979.2,2333.667,979.907,2332.592,979.907z"/>
		</g>
		<g>
			<path style="fill:#D600F7;" d="M2103.417,914.6c-0.462,0-0.902-0.122-1.317-0.39c-1.173-0.733-1.538-2.273-0.805-3.443
				l80.785-128.81c0.732-1.173,2.271-1.538,3.443-0.805c1.172,0.732,1.537,2.27,0.805,3.442l-80.785,128.833
				C2105.052,914.185,2104.247,914.6,2103.417,914.6z"/>
		</g>
		<g>
			<g style="opacity:0.8291;">
				<path style="fill:#D600F3;" d="M2332.592,979.907c-0.757,0-1.49-0.342-2.002-0.977l-148.387-194.14
					c-0.83-1.097-0.61-2.66,0.488-3.49c1.1-0.855,2.662-0.635,3.492,0.463L2334.57,975.88c0.83,1.097,0.635,2.685-0.462,3.515
					C2333.642,979.737,2333.13,979.907,2332.592,979.907z"/>
			</g>
		</g>
		<g>
			<g style="opacity:0.2422;">
				<path style="fill:#8F008D;" d="M1600.537,981.153c-0.22,0-0.44-0.025-0.66-0.073l-270.348-74.927
					c-1.332-0.368-2.112-1.758-1.747-3.078c0.38-1.343,1.747-2.122,3.078-1.758l270.36,74.927c1.32,0.367,2.1,1.758,1.735,3.078
					C1602.637,980.445,1601.635,981.153,1600.537,981.153z"/>
			</g>
		</g>
		<g>
			<g style="opacity:0.5917;">
				<path style="fill:#6E008B;" d="M1330.2,906.25c-0.148,0-0.28-0.025-0.428-0.05l-112.695-19.263
					c-1.368-0.218-2.283-1.513-2.05-2.88s1.525-2.27,2.892-2.05l112.695,19.263c1.367,0.242,2.282,1.537,2.05,2.88
					C1332.447,905.37,1331.397,906.25,1330.2,906.25z"/>
			</g>
		</g>
		<g>
			<g style="opacity:0.2062;">
				<path style="fill:#291F73;" d="M980.982,924.755c-1.21,0-2.273-0.878-2.468-2.098c-0.22-1.367,0.708-2.662,2.075-2.882
					l236.512-37.768c1.368-0.22,2.638,0.708,2.855,2.075c0.22,1.367-0.707,2.637-2.075,2.855l-236.51,37.795
					C981.237,924.755,981.102,924.755,980.982,924.755z"/>
			</g>
		</g>
		<g>
			<g style="opacity:0.1892;">
				<path style="fill:#05871C;" d="M104.577,1142.53c-1.075,0-2.063-0.685-2.393-1.758c-0.402-1.32,0.33-2.735,1.647-3.125
					l430.885-133.252c1.305-0.39,2.722,0.342,3.125,1.66s-0.33,2.71-1.648,3.125L105.31,1142.407
					C105.065,1142.48,104.822,1142.53,104.577,1142.53z"/>
			</g>
		</g>
		<g>
			<g style="opacity:0.5938;">
				<path style="fill:#3A561C;" d="M685.07,1243.09c-0.83,0-1.635-0.39-2.11-1.147L533.35,1008.13
					c-0.745-1.148-0.403-2.71,0.757-3.443c1.157-0.758,2.71-0.415,3.452,0.758l149.61,233.812c0.745,1.148,0.402,2.71-0.758,3.443
					C685.997,1242.97,685.522,1243.09,685.07,1243.09z"/>
			</g>
		</g>
		<g>
			<g style="opacity:0.8878;">
				<path style="fill:#2F40FF;" d="M1282.63,335.56c-1.32,0-2.43-1.038-2.503-2.37c-0.075-1.378,0.988-2.563,2.368-2.635
					l243.287-12.927c1.343-0.085,2.563,0.987,2.635,2.355c0.073,1.38-0.975,2.565-2.367,2.637l-243.288,12.928
					C1282.715,335.56,1282.665,335.56,1282.63,335.56z"/>
			</g>
		</g>
		<g>
			<g style="opacity:0.1948;">
				<path style="fill:#290024;" d="M535.45,1009.302c-1.245,0-2.32-0.927-2.48-2.198c-0.17-1.367,0.807-2.637,2.175-2.782
					l336.975-41.31c1.342-0.195,2.612,0.782,2.782,2.172c0.157,1.367-0.805,2.612-2.185,2.785l-336.963,41.308
					C535.657,1009.278,535.547,1009.302,535.45,1009.302z"/>
			</g>
		</g>
		<g>
			<g style="opacity:0.9922;">
				<path style="fill:#6600FF;" d="M1790.455,518.09L1790.455,518.09c-1.368,0-2.49-1.122-2.49-2.503l0.047-253.21
					c0-1.38,1.122-2.503,2.515-2.503l0,0c1.367,0,2.49,1.122,2.49,2.503l-0.047,253.21
					C1792.97,516.968,1791.845,518.09,1790.455,518.09z"/>
			</g>
		</g>
		<g>
			<g style="opacity:0.1667;">
				<path style="fill:#0532C6;" d="M1014.342,639.49c-0.598,0-1.182-0.208-1.66-0.622c-1.037-0.915-1.135-2.503-0.22-3.527
					l268.288-303.943c0.915-1.027,2.502-1.137,3.527-0.22c1.037,0.915,1.135,2.503,0.22,3.527L1016.21,638.648
					C1015.722,639.198,1015.027,639.49,1014.342,639.49z"/>
			</g>
		</g>
		<g>
			<g style="opacity:0.01;">
				<path style="fill:#2B0FC6;" d="M1443.152,744.115c-1.002,0-1.943-0.597-2.333-1.585l-160.522-408.558
					c-0.5-1.283,0.135-2.735,1.417-3.247c1.28-0.5,2.733,0.135,3.233,1.415l160.535,408.57c0.503,1.282-0.132,2.735-1.415,3.235
					C1443.762,744.068,1443.457,744.115,1443.152,744.115z"/>
			</g>
		</g>
		<g>
			<g style="opacity:0.6855;">
				<path style="fill:#6630FC;" d="M1790.455,518.09c-0.513,0-1.027-0.158-1.49-0.488l-264.527-195.47
					c-1.11-0.82-1.343-2.383-0.525-3.492c0.82-1.11,2.382-1.355,3.505-0.525l264.525,195.46c1.1,0.83,1.343,2.393,0.538,3.503
					C1791.967,517.737,1791.21,518.09,1790.455,518.09z"/>
			</g>
		</g>
		<g>
			<g style="opacity:0.146;">
				<path style="fill:#B900EA;" d="M2184.205,785.768c-0.147,0-0.295,0-0.44-0.025c-1.367-0.245-2.27-1.537-2.028-2.905
					l57.57-322.73c0.243-1.368,1.563-2.27,2.905-2.028c1.367,0.245,2.27,1.54,2.025,2.908l-57.567,322.728
					C2186.45,784.938,2185.4,785.768,2184.205,785.768z"/>
			</g>
		</g>
		<g>
			<g style="opacity:0.9078;">
				<path style="fill:#5F30FF;" d="M1525.927,322.62c-1.16,0-2.198-0.795-2.44-1.965c-0.307-1.355,0.547-2.685,1.902-2.98
					l264.6-57.737c1.342-0.305,2.685,0.547,2.98,1.902c0.292,1.342-0.563,2.688-1.93,2.98l-264.575,57.737
					C1526.27,322.608,1526.097,322.62,1525.927,322.62z"/>
			</g>
		</g>
		<g>
			<g style="opacity:0.5275;">
				<path style="fill:#2A0FE0;" d="M1457.752,530.932c-0.698,0-1.38-0.28-1.867-0.83L1280.762,334.73
					c-0.917-1.038-0.83-2.613,0.195-3.54c1.025-0.918,2.613-0.83,3.528,0.195l175.122,195.372c0.915,1.025,0.83,2.612-0.195,3.527
					C1458.935,530.713,1458.337,530.932,1457.752,530.932z"/>
			</g>
		</g>
		<g>
			<g style="opacity:0.2006;">
				<path style="fill:#13121C;" d="M535.45,1009.302c-1.135,0-2.163-0.782-2.43-1.93c-0.318-1.342,0.513-2.685,1.855-3.003
					l207.177-49.242c1.332-0.318,2.688,0.513,3.003,1.855c0.317,1.343-0.513,2.685-1.855,3.003l-207.165,49.242
					C535.84,1009.278,535.645,1009.302,535.45,1009.302z"/>
			</g>
		</g>
		<g>
			<g style="opacity:0.2503;">
				<path style="fill:#05351C;" d="M535.45,1009.302c-0.513,0-1.05-0.172-1.49-0.513L365.172,882.545
					c-1.11-0.83-1.33-2.392-0.512-3.517c0.83-1.098,2.392-1.318,3.505-0.488l168.785,126.245c1.112,0.83,1.332,2.393,0.5,3.515
					C536.962,1008.935,536.217,1009.302,535.45,1009.302z"/>
			</g>
		</g>
		<g>
			<g style="opacity:0.6067;">
				<path style="fill:#4D1F42;" d="M980.982,924.755c-1.32,0-2.43-1.025-2.503-2.367c-0.075-1.393,0.987-2.563,2.367-2.638
					l349.217-18.505c1.333-0.047,2.552,0.977,2.625,2.367c0.073,1.367-0.987,2.54-2.367,2.612l-349.208,18.53
					C981.067,924.755,981.017,924.755,980.982,924.755z"/>
			</g>
		</g>
		<g>
			<g style="opacity:0.2635;">
				<path style="fill:#6100B1;" d="M1443.152,744.115c-0.818,0-1.613-0.402-2.1-1.135c-0.745-1.157-0.415-2.71,0.732-3.452
					l347.302-226.038c1.172-0.758,2.71-0.417,3.465,0.73c0.757,1.16,0.417,2.71-0.73,3.468L1444.52,743.713
					C1444.092,743.995,1443.627,744.115,1443.152,744.115z"/>
			</g>
		</g>
		<g>
			<g style="opacity:0.2638;">
				<path style="fill:#387514;" d="M685.057,1243.09c-0.61,0-1.22-0.22-1.695-0.657c-1.015-0.953-1.075-2.515-0.135-3.54
					L979.15,920.557c0.94-1.025,2.527-1.075,3.527-0.122c1.015,0.927,1.075,2.515,0.135,3.515L686.89,1242.31
					C686.402,1242.823,685.73,1243.09,685.057,1243.09z"/>
			</g>
		</g>
		<g>
			<g style="opacity:0.1624;">
				<path style="fill:#6C0034;" d="M872.412,967.992c-1.232,0-2.307-0.927-2.478-2.172c-0.185-1.367,0.78-2.638,2.148-2.807
					l457.775-61.742c1.368-0.195,2.625,0.758,2.82,2.122c0.185,1.392-0.78,2.638-2.148,2.832L872.755,967.97
					C872.645,967.97,872.522,967.992,872.412,967.992z"/>
			</g>
		</g>
		<g>
			<g style="opacity:0.8353;">
				<path style="fill:#8D21FA;" d="M1790.455,518.09c-0.563,0-1.147-0.195-1.613-0.598c-1.05-0.89-1.195-2.465-0.292-3.515
					l171.582-202.6c0.878-1.05,2.465-1.198,3.515-0.293c1.05,0.89,1.172,2.465,0.292,3.515l-171.583,202.6
					C1791.87,517.785,1791.162,518.09,1790.455,518.09z"/>
			</g>
		</g>
		<g>
			<g style="opacity:0.3449;">
				<path style="fill:#4E2365;" d="M1330.2,906.25c-0.573,0-1.148-0.195-1.61-0.61l-315.857-266.735
					c-1.063-0.893-1.198-2.48-0.305-3.53c0.89-1.05,2.465-1.182,3.527-0.292l315.858,266.747c1.05,0.88,1.182,2.467,0.292,3.517
					C1331.615,905.932,1330.907,906.25,1330.2,906.25z"/>
			</g>
		</g>
		<g>
			<g style="opacity:0.5372;">
				<path style="fill:#6000CA;" d="M1457.74,530.932c-1.333,0-2.443-1.063-2.49-2.405c-0.063-1.38,1.025-2.538,2.405-2.6
					l332.703-12.842c1.293-0.06,2.537,1.027,2.588,2.405c0.073,1.38-1.003,2.54-2.392,2.6l-332.715,12.83
					C1457.837,530.92,1457.775,530.932,1457.74,530.932z"/>
			</g>
		</g>
		<g>
			<path style="fill:#8721FF;" d="M1962.035,315.49c-0.242,0-0.487-0.035-0.707-0.11l-171.508-50.61c-1.343-0.39-2.1-1.782-1.71-3.1
				c0.39-1.33,1.782-2.087,3.125-1.698l171.51,50.622c1.318,0.393,2.075,1.783,1.682,3.103
				C1964.112,314.783,1963.11,315.49,1962.035,315.49z"/>
		</g>
		<g>
			<path style="fill:#740065;" d="M1330.187,906.25c-0.487,0-0.987-0.148-1.415-0.465c-1.135-0.78-1.417-2.342-0.622-3.465
				l112.95-162.135c0.795-1.122,2.345-1.403,3.48-0.622c1.135,0.795,1.415,2.357,0.622,3.492l-112.952,162.12
				C1331.762,905.86,1330.982,906.25,1330.187,906.25z"/>
		</g>
		<g>
			<g style="opacity:0.184;">
				<path style="fill:#5A00EC;" d="M1457.752,530.932c-0.745,0-1.465-0.33-1.968-0.94c-0.852-1.085-0.682-2.648,0.405-3.515
					l332.775-266.052c1.075-0.867,2.637-0.695,3.515,0.39c0.855,1.075,0.685,2.65-0.39,3.515l-332.787,266.053
					C1458.85,530.75,1458.287,530.932,1457.752,530.932z"/>
			</g>
		</g>
		<g>
			<g style="opacity:0.6471;">
				<path style="fill:#585607;" d="M685.057,1243.09c-0.488,0-0.975-0.12-1.403-0.438c-1.135-0.757-1.44-2.32-0.66-3.467
					L870.35,964.088c0.78-1.148,2.33-1.44,3.477-0.66c1.135,0.758,1.43,2.32,0.66,3.468l-187.353,275.098
					C686.645,1242.725,685.865,1243.09,685.057,1243.09z"/>
			</g>
		</g>
		<g>
			<g style="opacity:0.2525;">
				<path style="fill:#5B30BB;" d="M1443.152,744.115c-0.16,0-0.318-0.01-0.477-0.047c-1.355-0.258-2.245-1.575-1.978-2.93
					l82.778-421.497c0.255-1.355,1.575-2.245,2.94-1.978c1.345,0.27,2.223,1.587,1.955,2.943l-82.765,421.497
					C1445.372,743.297,1444.322,744.115,1443.152,744.115z"/>
			</g>
		</g>
		<g>
			<g style="opacity:0.7328;">
				<path style="fill:#A97D00;" d="M970.85,1350.61c-0.293,0-0.588-0.073-0.88-0.17l-285.79-107.495
					c-1.295-0.49-1.94-1.93-1.453-3.222c0.475-1.295,1.927-1.955,3.21-1.465l285.803,107.495c1.282,0.488,1.943,1.928,1.452,3.223
					C972.815,1349.975,971.862,1350.61,970.85,1350.61z"/>
			</g>
		</g>
		<g>
			<g style="opacity:0.3733;">
				<path style="fill:#73007F;" d="M1330.2,906.25c-0.268,0-0.538-0.05-0.805-0.148c-1.307-0.438-2.015-1.855-1.563-3.172
					l127.55-375.305c0.44-1.307,1.858-2.015,3.162-1.563c1.305,0.44,2.015,1.867,1.563,3.172l-127.54,375.305
					C1332.215,905.59,1331.237,906.25,1330.2,906.25z"/>
			</g>
		</g>
		<g>
			<g style="opacity:0.243;">
				<path style="fill:#8751FF;" d="M1525.927,322.62c-1.368,0-2.477-1.087-2.502-2.455c-0.025-1.378,1.075-2.525,2.455-2.55
					l436.107-7.13c1.465-0.085,2.515,1.088,2.54,2.468c0.023,1.377-1.075,2.515-2.468,2.537l-436.083,7.13
					C1525.952,322.62,1525.927,322.62,1525.927,322.62z"/>
			</g>
		</g>
		<g>
			<path style="fill:#5930D5;" d="M1457.74,530.932c-0.258,0-0.513-0.047-0.77-0.135c-1.318-0.427-2.025-1.83-1.6-3.147
				l68.177-208.303c0.428-1.318,1.818-2.038,3.162-1.598c1.292,0.427,2.025,1.83,1.585,3.147l-68.175,208.315
				C1459.777,530.26,1458.802,530.932,1457.74,530.932z"/>
		</g>
		<g>
			<g style="opacity:0.0964;">
				<path style="fill:#9600E9;" d="M1790.455,518.09c-1.245,0-2.32-0.928-2.468-2.198c-0.17-1.365,0.807-2.622,2.172-2.783
					l451.32-55.052c1.39-0.147,2.613,0.818,2.783,2.185c0.17,1.367-0.805,2.613-2.198,2.783l-451.293,55.043
					C1790.65,518.078,1790.552,518.09,1790.455,518.09z"/>
			</g>
		</g>
		<g>
			<path style="fill:#271F1C;" d="M872.425,967.992c-1.003,0-1.943-0.61-2.333-1.585c-0.513-1.295,0.122-2.735,1.405-3.247
				l108.555-43.237c1.282-0.513,2.735,0.122,3.248,1.415c0.512,1.27-0.11,2.735-1.39,3.247l-108.57,43.212
				C873.035,967.92,872.73,967.992,872.425,967.992z"/>
		</g>
		<g>
			<g style="opacity:0.8662;">
				<path style="fill:#09424D;" d="M980.982,924.755c-0.098,0-0.198,0-0.295-0.023c-1.365-0.147-2.355-1.392-2.197-2.76
					l33.362-285.277c0.16-1.367,1.405-2.357,2.773-2.185c1.377,0.157,2.355,1.39,2.197,2.77L983.46,922.535
					C983.312,923.828,982.24,924.755,980.982,924.755z"/>
			</g>
		</g>
		<g>
			<g style="opacity:0.0309;">
				<path style="fill:#00BC00;" d="M104.577,1142.53c-0.647,0-1.295-0.245-1.783-0.758c-0.965-0.977-0.965-2.563,0.025-3.515
					L364.905,878.76c0.987-0.978,2.563-0.978,3.54,0.025c0.965,0.975,0.965,2.563-0.025,3.515l-262.085,259.497
					C105.847,1142.285,105.212,1142.53,104.577,1142.53z"/>
			</g>
		</g>
		<g>
			<g style="opacity:0.0401;">
				<path style="fill:#2F1F4D;" d="M980.982,924.755c-1.003,0-1.943-0.61-2.332-1.585c-0.5-1.295,0.135-2.735,1.415-3.247
					l462.172-180.628c1.292-0.513,2.745,0.133,3.245,1.415c0.503,1.282-0.132,2.735-1.415,3.235l-462.183,180.64
					C981.592,924.708,981.287,924.755,980.982,924.755z"/>
			</g>
		</g>
		<g>
			<g style="opacity:0.3222;">
				<path style="fill:#794614;" d="M970.862,1350.61c-0.025,0-0.05,0-0.062,0c-1.378-0.047-2.478-1.195-2.44-2.563l10.12-425.855
					c0.035-1.367,1.17-2.515,2.563-2.443c1.38,0.05,2.465,1.172,2.443,2.565l-10.133,425.855
					C973.327,1349.512,972.205,1350.61,970.862,1350.61z"/>
			</g>
		</g>
		<g>
			<g style="opacity:0.5942;">
				<path style="fill:#282340;" d="M872.412,967.992c-0.33,0-0.66-0.073-0.99-0.22c-1.268-0.535-1.843-2.025-1.305-3.27
					l141.93-328.505c0.537-1.268,2.015-1.855,3.285-1.305s1.855,2.015,1.305,3.282L874.707,966.48
					C874.305,967.407,873.387,967.992,872.412,967.992z"/>
			</g>
		</g>
		<g>
			<g style="opacity:0.1345;">
				<path style="fill:#1B2FC2;" d="M1105.577,455.42c-0.793,0-1.585-0.378-2.063-1.098c-0.78-1.138-0.475-2.7,0.66-3.467
					l177.05-119.872c1.147-0.77,2.697-0.478,3.467,0.67c0.78,1.147,0.475,2.698-0.66,3.48l-177.05,119.86
					C1106.555,455.285,1106.067,455.42,1105.577,455.42z"/>
			</g>
		</g>
		<g>
			<g style="opacity:0.4484;">
				<path style="fill:#982707;" d="M970.85,1350.61c-1.11,0-2.125-0.757-2.418-1.88l-98.438-382.617
					c-0.343-1.342,0.465-2.71,1.795-3.05c1.342-0.343,2.71,0.463,3.052,1.805l98.438,382.617c0.34,1.318-0.465,2.685-1.807,3.027
					C971.265,1350.585,971.057,1350.61,970.85,1350.61z"/>
			</g>
		</g>
		<g>
			<g style="opacity:0.2673;">
				<path style="fill:#302370;" d="M1443.152,744.115c-0.195,0-0.392-0.022-0.588-0.073l-428.82-104.625
					c-1.342-0.33-2.16-1.685-1.83-3.015c0.328-1.345,1.682-2.163,3.015-1.845l428.82,104.628c1.33,0.33,2.16,1.685,1.83,3.028
					C1445.3,743.36,1444.275,744.115,1443.152,744.115z"/>
			</g>
		</g>
		<g>
			<g style="opacity:0.6536;">
				<path style="fill:#426800;" d="M685.07,1243.09c-0.17,0-0.34,0-0.5-0.047c-1.355-0.27-2.232-1.588-1.952-2.955l57.555-283.033
					c0.282-1.342,1.6-2.22,2.955-1.953c1.355,0.293,2.223,1.613,1.953,2.955l-57.568,283.032
					C687.267,1242.285,686.23,1243.09,685.07,1243.09z"/>
			</g>
		</g>
		<g>
			<g style="opacity:0.2042;">
				<path style="fill:#2F238A;" d="M1014.33,639.49c-1.122,0-2.135-0.77-2.415-1.905c-0.33-1.343,0.487-2.698,1.83-3.028
					L1457.152,526c1.333-0.328,2.688,0.49,3.015,1.833c0.33,1.342-0.488,2.698-1.83,3.027L1014.93,639.417
					C1014.735,639.465,1014.537,639.49,1014.33,639.49z"/>
			</g>
		</g>
		<g>
			<path style="fill:#55008A;" d="M1443.152,744.115c-0.05,0-0.11,0-0.172,0c-1.378-0.097-2.415-1.292-2.318-2.672l14.588-213.182
				c0.097-1.38,1.28-2.417,2.66-2.32c1.38,0.085,2.417,1.282,2.333,2.66l-14.6,213.185
				C1445.557,743.115,1444.457,744.115,1443.152,744.115z"/>
		</g>
		<g>
			<g style="opacity:0.2428;">
				<path style="fill:#6D00F4;" d="M1790.455,518.09c-0.05,0-0.075,0-0.123,0c-1.392-0.073-2.443-1.258-2.367-2.635l19.432-364.05
					c0.073-1.38,1.27-2.455,2.637-2.357c1.368,0.072,2.415,1.245,2.343,2.625l-19.432,364.05
					C1792.87,517.052,1791.772,518.09,1790.455,518.09z"/>
			</g>
		</g>
		<g>
			<g style="opacity:0.8316;">
				<path style="fill:#6700FF;" d="M1790.527,264.867c-0.148,0-0.292-0.012-0.44-0.035c-1.367-0.233-2.27-1.528-2.025-2.895
					l19.36-110.827c0.242-1.355,1.537-2.27,2.905-2.025c1.343,0.232,2.27,1.525,2.025,2.893l-19.36,110.827
					C1792.772,264.013,1791.722,264.867,1790.527,264.867z"/>
			</g>
		</g>
		<g>
			<g style="opacity:0.01;">
				<path style="fill:#348C00;" d="M685.057,1243.09c-0.682,0-1.378-0.267-1.868-0.83L364.795,882.177
					c-0.915-1.025-0.817-2.612,0.22-3.515c1.025-0.902,2.613-0.83,3.528,0.22l318.395,360.057c0.918,1.025,0.82,2.613-0.217,3.54
					C686.242,1242.895,685.657,1243.09,685.057,1243.09z"/>
			</g>
		</g>
		<g>
			<g style="opacity:0.1713;">
				<path style="fill:#7E002D;" d="M926.537,958.643c-1.232,0-2.307-0.927-2.478-2.198c-0.17-1.367,0.793-2.612,2.16-2.783
					l403.65-52.392c1.367-0.195,2.625,0.78,2.807,2.147c0.173,1.367-0.792,2.613-2.16,2.807l-403.65,52.393
					C926.757,958.617,926.647,958.643,926.537,958.643z"/>
			</g>
		</g>
		<g>
			<g style="opacity:0.9602;">
				<path style="fill:#123114;" d="M742.627,960.057c-1.22,0-2.295-0.878-2.477-2.122c-0.198-1.367,0.742-2.638,2.11-2.857
					l238.355-35.302c1.367-0.17,2.637,0.757,2.832,2.125c0.208,1.342-0.732,2.635-2.1,2.832l-238.355,35.302
					C742.87,960.057,742.75,960.057,742.627,960.057z"/>
			</g>
		</g>
		<g>
			<g style="opacity:0.2325;">
				<path style="fill:#695600;" d="M685.057,1243.09c-0.573,0-1.148-0.195-1.61-0.585c-1.05-0.902-1.185-2.465-0.292-3.515
					l241.48-284.472c0.89-1.05,2.478-1.173,3.528-0.295c1.05,0.905,1.182,2.468,0.292,3.518l-241.492,284.473
					C686.475,1242.797,685.767,1243.09,685.057,1243.09z"/>
			</g>
		</g>
		<g>
			<g style="opacity:0.4337;">
				<path style="fill:#6730FE;" d="M1525.927,322.62c-0.855,0-1.685-0.44-2.16-1.22c-0.695-1.185-0.305-2.723,0.877-3.43
					l283.973-168.58c1.172-0.707,2.71-0.317,3.417,0.878c0.71,1.185,0.318,2.723-0.877,3.42l-283.96,168.578
					C1526.807,322.51,1526.367,322.62,1525.927,322.62z"/>
			</g>
		</g>
		<g>
			<path style="fill:#311207;" d="M872.425,967.992c-0.063,0-0.11-0.023-0.16-0.023l-129.797-7.912
				c-1.378-0.073-2.415-1.268-2.342-2.635c0.085-1.392,1.282-2.417,2.647-2.345l129.797,7.91c1.38,0.075,2.43,1.27,2.345,2.638
				C874.83,966.968,873.73,967.992,872.425,967.992z"/>
		</g>
		<g>
			<g style="opacity:0.641;">
				<path style="fill:#AF53C3;" d="M1790.455,518.09c-0.61,0-1.245-0.23-1.735-0.708c-1-0.953-1.025-2.538-0.073-3.528
					l50.195-52.027c0.978-0.988,2.54-1.013,3.54-0.06c1.002,0.965,1.025,2.54,0.073,3.54l-50.195,52.015
					C1791.772,517.835,1791.112,518.09,1790.455,518.09z"/>
			</g>
		</g>
		<g>
			<g style="opacity:0.4014;">
				<path style="fill:#A953E5;" d="M1840.65,466.065c-1.123,0-2.15-0.758-2.418-1.893l-50.147-201.197
					c-0.318-1.342,0.49-2.698,1.833-3.027c1.342-0.34,2.685,0.477,3.027,1.82l50.122,201.197c0.34,1.342-0.465,2.698-1.807,3.025
					C1841.04,466.052,1840.845,466.065,1840.65,466.065z"/>
			</g>
		</g>
		<g>
			<g style="opacity:0.3275;">
				<path style="fill:#133538;" d="M742.627,960.057c-0.575,0-1.147-0.195-1.625-0.585c-1.05-0.902-1.182-2.465-0.28-3.515
					l271.705-320.583c0.902-1.06,2.477-1.195,3.527-0.292c1.05,0.892,1.182,2.467,0.292,3.515L744.532,959.18
					C744.042,959.765,743.335,960.057,742.627,960.057z"/>
			</g>
		</g>
		<g>
			<g style="opacity:0.7595;">
				<path style="fill:#B721F2;" d="M2241.772,463.038c-0.39,0-0.783-0.085-1.172-0.28l-279.735-147.56
					c-1.223-0.648-1.685-2.148-1.05-3.37c0.657-1.22,2.148-1.695,3.393-1.048l279.737,147.557c1.22,0.635,1.685,2.147,1.05,3.37
					C2243.53,462.56,2242.675,463.038,2241.772,463.038z"/>
			</g>
		</g>
		<g>
			<g style="opacity:0.2084;">
				<path style="fill:#833900;" d="M970.862,1350.61c-0.867,0-1.698-0.463-2.162-1.245L740.467,958.813
					c-0.698-1.17-0.295-2.71,0.903-3.417c1.182-0.682,2.722-0.293,3.417,0.905l228.222,390.525c0.695,1.198,0.293,2.735-0.89,3.443
					C971.717,1350.488,971.29,1350.61,970.862,1350.61z"/>
			</g>
		</g>
		<g>
			<path style="fill:#391F14;" d="M926.55,958.643c-0.843,0-1.66-0.44-2.123-1.195c-0.733-1.172-0.38-2.71,0.792-3.443
				l54.443-33.862c1.172-0.733,2.71-0.393,3.443,0.78c0.72,1.172,0.367,2.735-0.805,3.443l-54.433,33.888
				C927.452,958.52,927.002,958.643,926.55,958.643z"/>
		</g>
		<g>
			<g style="opacity:0.2037;">
				<path style="fill:#A983CD;" d="M1840.65,466.078c-0.343,0-0.708-0.075-1.025-0.233L1524.89,322.4
					c-1.257-0.575-1.817-2.063-1.245-3.32c0.575-1.257,2.063-1.807,3.307-1.232L1841.7,461.293c1.245,0.572,1.805,2.063,1.22,3.32
					C1842.505,465.527,1841.602,466.078,1840.65,466.078z"/>
			</g>
		</g>
		<g>
			<path style="fill:#580007;" d="M872.412,967.992c-1.198,0-2.247-0.878-2.455-2.075c-0.242-1.367,0.672-2.66,2.04-2.905
				l54.125-9.35c1.368-0.245,2.65,0.682,2.883,2.05c0.242,1.342-0.672,2.637-2.04,2.882l-54.125,9.35
				C872.705,967.97,872.557,967.992,872.412,967.992z"/>
		</g>
		<g>
			<g style="opacity:0.5728;">
				<path style="fill:#3A2338;" d="M926.55,958.643c-0.22,0-0.453-0.048-0.67-0.098c-1.332-0.367-2.112-1.732-1.747-3.075
					l87.795-319.142c0.365-1.33,1.745-2.122,3.075-1.745c1.33,0.365,2.113,1.732,1.745,3.065l-87.792,319.14
					C928.65,957.91,927.637,958.643,926.55,958.643z"/>
			</g>
		</g>
		<g>
			<g style="opacity:0.3551;">
				<path style="fill:#AA2700;" d="M970.85,1350.61c-1.258,0-2.333-0.953-2.478-2.223L924.06,956.42
					c-0.157-1.39,0.83-2.612,2.198-2.782c1.368-0.148,2.613,0.83,2.77,2.222l44.313,391.968c0.157,1.367-0.83,2.612-2.21,2.757
					C971.045,1350.585,970.947,1350.61,970.85,1350.61z"/>
			</g>
		</g>
		<g>
			<g style="opacity:0.9977;">
				<path style="fill:#8E21FD;" d="M1962.035,315.49c-0.657,0-1.342-0.267-1.83-0.78L1808.08,153.26
					c-0.95-1.015-0.902-2.587,0.098-3.54c1.002-0.94,2.59-0.905,3.542,0.11l152.122,161.45c0.953,1,0.903,2.587-0.097,3.527
					C1963.257,315.26,1962.647,315.49,1962.035,315.49z"/>
			</g>
		</g>
		<g>
			<g style="opacity:0.8762;">
				<path style="fill:#20436C;" d="M1014.33,639.49c-0.365,0-0.742-0.085-1.097-0.258c-1.245-0.622-1.745-2.122-1.135-3.355
					l91.247-184.057c0.61-1.247,2.1-1.747,3.345-1.138c1.245,0.613,1.745,2.113,1.135,3.358l-91.248,184.057
					C1016.137,638.977,1015.26,639.49,1014.33,639.49z"/>
			</g>
		</g>
		<g>
			<g style="opacity:0.1507;">
				<path style="fill:#461F6C;" d="M1443.152,744.115c-0.575,0-1.147-0.195-1.625-0.597l-337.573-288.695
					c-1.05-0.893-1.172-2.467-0.267-3.518c0.89-1.047,2.465-1.182,3.515-0.28l337.573,288.697c1.05,0.89,1.172,2.478,0.28,3.528
					C1444.555,743.823,1443.86,744.115,1443.152,744.115z"/>
			</g>
		</g>
		<g>
			<g style="opacity:0.526;">
				<path style="fill:#0E4800;" d="M742.627,960.057c-0.172,0-0.33-0.023-0.5-0.047l-375.965-77.028
					c-1.355-0.267-2.223-1.585-1.943-2.952c0.27-1.343,1.587-2.223,2.943-1.955l375.965,77.027c1.355,0.293,2.223,1.613,1.94,2.955
					C744.837,959.253,743.787,960.057,742.627,960.057z"/>
			</g>
		</g>
		<g>
			<g style="opacity:0.476;">
				<path style="fill:#451F86;" d="M1457.752,530.932c-0.185,0-0.355-0.025-0.525-0.06l-352.175-75.503
					c-1.343-0.292-2.208-1.622-1.915-2.965c0.292-1.355,1.623-2.223,2.965-1.93l352.162,75.515c1.355,0.28,2.208,1.61,1.928,2.965
					C1459.937,530.128,1458.9,530.932,1457.752,530.932z"/>
			</g>
		</g>
		<g>
			<g style="opacity:0.8975;">
				<path style="fill:#D074CC;" d="M1840.65,466.065c-0.563,0-1.1-0.173-1.563-0.55c-1.075-0.868-1.245-2.443-0.39-3.515
					l121.385-150.575c0.855-1.085,2.443-1.257,3.515-0.377c1.075,0.867,1.248,2.442,0.368,3.515l-121.363,150.575
					C1842.115,465.747,1841.382,466.065,1840.65,466.065z"/>
			</g>
		</g>
		<g>
			<g style="opacity:0.3529;">
				<path style="fill:#A3539C;" d="M1457.74,530.932c-1.198,0-2.26-0.867-2.455-2.088c-0.232-1.355,0.685-2.647,2.04-2.88
					l382.91-64.858c1.367-0.243,2.66,0.685,2.88,2.04c0.22,1.368-0.682,2.66-2.05,2.893l-382.897,64.855
					C1458.02,530.92,1457.885,530.932,1457.74,530.932z"/>
			</g>
		</g>
		<g>
			<path style="fill:#431200;" d="M742.627,960.057c-1.38,0-2.49-1.097-2.502-2.465c-0.013-1.393,1.097-2.515,2.477-2.54
				l183.923-1.415h0.012c1.38,0,2.49,1.1,2.503,2.465c0.013,1.393-1.098,2.515-2.478,2.54l-183.922,1.415H742.627z"/>
		</g>
		<g>
			<g style="opacity:0.3219;">
				<path style="fill:#DA53BA;" d="M1840.65,466.065c-1.368,0-2.49-1.1-2.49-2.478c-0.025-1.38,1.098-2.503,2.465-2.515
					l401.122-3.027c0.025,0,0.025,0,0.025,0c1.367,0,2.49,1.11,2.49,2.477c0.025,1.38-1.098,2.515-2.465,2.515l-401.122,3.027
					H1840.65z"/>
			</g>
		</g>
		<g>
			<g style="opacity:0.1799;">
				<path style="fill:#CE21F0;" d="M1962.035,315.49c-1.22,0-2.27-0.877-2.465-2.11c-0.22-1.367,0.708-2.65,2.075-2.858
					l412.305-64.892c1.342-0.22,2.637,0.708,2.857,2.075c0.22,1.368-0.71,2.65-2.075,2.857l-412.305,64.892
					C1962.28,315.478,1962.157,315.49,1962.035,315.49z"/>
			</g>
		</g>
		<g>
			<g style="opacity:0.2046;">
				<path style="fill:#FF00B8;" d="M2647.607,641.162c-0.343,0-0.682-0.072-1.025-0.22l-405.81-178.113
					c-1.27-0.55-1.833-2.027-1.295-3.297c0.563-1.255,2.028-1.842,3.295-1.28l405.835,178.112c1.27,0.563,1.833,2.038,1.27,3.295
					C2649.487,640.6,2648.56,641.162,2647.607,641.162z"/>
			</g>
		</g>
		<g>
			<g style="opacity:0.8018;">
				<path style="fill:#D700DE;" d="M2241.772,463.038c-0.465,0-0.903-0.122-1.318-0.38c-1.173-0.72-1.54-2.27-0.807-3.44
					l132.57-212.44c0.733-1.173,2.27-1.525,3.443-0.805c1.17,0.732,1.537,2.283,0.805,3.442l-132.567,212.45
					C2243.432,462.622,2242.602,463.038,2241.772,463.038z"/>
			</g>
		</g>
		<g>
			<g style="opacity:0.151;">
				<path style="fill:#D0009C;" d="M2536.085,787.55c-0.685,0-1.368-0.27-1.858-0.807l-294.31-324.522
					c-0.927-1.025-0.855-2.6,0.17-3.527c1.025-0.93,2.613-0.855,3.54,0.17l294.287,324.513c0.927,1.025,0.855,2.612-0.17,3.54
					C2537.28,787.352,2536.67,787.55,2536.085,787.55z"/>
			</g>
		</g>
		<g>
			<g style="opacity:0.7676;">
				<path style="fill:#B153C6;" d="M1840.65,466.065c-1.271,0-2.368-0.965-2.49-2.247l-30.762-312.035
					c-0.122-1.368,0.88-2.587,2.245-2.735c1.392-0.122,2.612,0.88,2.735,2.247l30.762,312.035c0.145,1.368-0.88,2.588-2.247,2.723
					C1840.82,466.065,1840.722,466.065,1840.65,466.065z"/>
			</g>
		</g>
		<g>
			<g style="opacity:0.0543;">
				<path style="fill:#FF0060;" d="M2484.155,1111.23c-0.267,0-0.56-0.047-0.83-0.145c-1.293-0.44-2.003-1.88-1.538-3.175
					l163.452-470.068c0.463-1.308,1.88-2.003,3.173-1.55c1.32,0.463,2.002,1.88,1.538,3.185l-163.45,470.068
					C2486.157,1110.573,2485.18,1111.23,2484.155,1111.23z"/>
			</g>
		</g>
		<g>
			<g style="opacity:0.3224;">
				<path style="fill:#E554C7;" d="M2203.955,394.177c-0.268,0-0.512-0.037-0.78-0.122l-241.92-78.688
					c-1.318-0.425-2.028-1.842-1.613-3.147c0.44-1.32,1.833-2.04,3.15-1.612l241.945,78.688c1.292,0.427,2.025,1.842,1.585,3.15
					C2205.982,393.505,2205.005,394.177,2203.955,394.177z"/>
			</g>
		</g>
		<g>
			<g style="opacity:0.3375;">
				<path style="fill:#A1543F;" d="M1443.152,744.115c-0.513,0-1.025-0.145-1.465-0.475c-1.123-0.818-1.368-2.38-0.562-3.49
					l69.47-95.435c0.818-1.113,2.38-1.355,3.505-0.55c1.11,0.818,1.355,2.38,0.547,3.492l-69.47,95.433
					C1444.69,743.763,1443.92,744.115,1443.152,744.115z"/>
			</g>
		</g>
		<g>
			<g style="opacity:0.6106;">
				<path style="fill:#DD0044;" d="M2484.155,1111.23c-0.145,0-0.267-0.025-0.39-0.025c-1.367-0.217-2.295-1.512-2.075-2.88
					l51.905-323.657c0.218-1.367,1.513-2.295,2.881-2.075c1.367,0.22,2.294,1.49,2.075,2.857l-51.93,323.68
					C2486.425,1110.353,2485.352,1111.23,2484.155,1111.23z"/>
			</g>
		</g>
		<g>
			<g style="opacity:0.7358;">
				<path style="fill:#007300;" d="M366.662,883.032c-0.378,0-0.758-0.072-1.122-0.27L90.82,744.287
					c-1.233-0.622-1.72-2.125-1.098-3.357c0.623-1.232,2.123-1.732,3.355-1.11l274.707,138.475c1.232,0.635,1.735,2.125,1.112,3.37
					C368.457,882.52,367.577,883.032,366.662,883.032z"/>
			</g>
		</g>
		<g>
			<g style="opacity:0.3872;">
				<path style="fill:#A05459;" d="M1512.622,648.682c-0.94,0-1.843-0.525-2.27-1.443l-54.872-117.76
					c-0.585-1.245-0.047-2.735,1.21-3.32c1.245-0.587,2.735-0.037,3.32,1.208l54.882,117.763c0.575,1.258,0.037,2.745-1.208,3.32
					C1513.342,648.607,1512.975,648.682,1512.622,648.682z"/>
			</g>
		</g>
		<g>
			<g style="opacity:0.2648;">
				<path style="fill:#A90089;" d="M2336.597,776.66c-1.075,0-2.075-0.707-2.393-1.782l-94.825-313.61
					c-0.39-1.32,0.343-2.722,1.66-3.112c1.318-0.402,2.735,0.34,3.125,1.66l94.825,313.622c0.39,1.318-0.367,2.71-1.685,3.1
					C2337.06,776.612,2336.817,776.66,2336.597,776.66z"/>
			</g>
		</g>
		<g>
			<g style="opacity:0.9235;">
				<path style="fill:#BC001D;" d="M2484.155,1111.23c-0.537,0-1.075-0.17-1.537-0.537l-142.358-110.328
					c-1.075-0.852-1.27-2.415-0.44-3.515c0.855-1.072,2.417-1.27,3.515-0.44l142.335,110.352c1.097,0.83,1.292,2.393,0.462,3.493
					C2485.645,1110.887,2484.887,1111.23,2484.155,1111.23z"/>
			</g>
		</g>
		<g>
			<g style="opacity:0.052;">
				<path style="fill:#0E5900;" d="M742.627,960.057c-0.172,0-0.342-0.023-0.512-0.047l-459.79-95.533
					c-1.355-0.267-2.223-1.587-1.943-2.955c0.283-1.343,1.587-2.198,2.955-1.928l459.802,95.508c1.343,0.293,2.21,1.613,1.927,2.978
					C744.825,959.253,743.787,960.057,742.627,960.057z"/>
			</g>
		</g>
		<g>
			<g style="opacity:0.7427;">
				<path style="fill:#EE33B5;" d="M2241.772,463.038c-0.88,0-1.733-0.465-2.197-1.295l-37.818-68.86
					c-0.66-1.22-0.22-2.733,1.002-3.393c1.195-0.672,2.71-0.232,3.393,0.978l37.817,68.87c0.66,1.21,0.22,2.735-1,3.395
					C2242.602,462.94,2242.187,463.038,2241.772,463.038z"/>
			</g>
		</g>
		<g>
			<path style="fill:#007D00;" d="M366.662,883.032c-0.17,0-0.355-0.025-0.537-0.05L282.3,864.477
				c-1.355-0.292-2.21-1.635-1.905-2.977c0.292-1.343,1.625-2.198,2.98-1.905L367.2,878.1c1.355,0.293,2.21,1.613,1.905,2.98
				C368.847,882.25,367.81,883.032,366.662,883.032z"/>
		</g>
		<g>
			<g style="opacity:0.2725;">
				<path style="fill:#B60032;" d="M2484.155,1111.23c-0.978,0-1.88-0.56-2.295-1.49l-147.558-334.57
					c-0.563-1.267,0-2.745,1.27-3.307c1.268-0.55,2.733,0.025,3.295,1.283l147.558,334.57c0.562,1.27,0,2.735-1.268,3.295
					C2484.84,1111.157,2484.497,1111.23,2484.155,1111.23z"/>
			</g>
		</g>
		<g>
			<g style="opacity:0.3252;">
				<path style="fill:#FF4034;" d="M2484.155,1111.23c-0.66,0-1.292-0.242-1.782-0.757c-0.975-0.975-0.952-2.563,0.025-3.54
					l267.945-262.792c0.975-0.953,2.563-0.927,3.54,0.05c0.975,0.975,0.953,2.563-0.025,3.54l-267.97,262.792
					C2485.425,1110.988,2484.79,1111.23,2484.155,1111.23z"/>
			</g>
		</g>
		<g>
			<g style="opacity:0.0578;">
				<path style="fill:#C533C0;" d="M2203.955,394.177c-0.44,0-0.903-0.122-1.295-0.367l-394.065-240.135
					c-1.172-0.72-1.563-2.26-0.833-3.43c0.71-1.185,2.247-1.562,3.42-0.842l394.068,240.135c1.195,0.723,1.562,2.26,0.83,3.443
					C2205.615,393.75,2204.785,394.177,2203.955,394.177z"/>
			</g>
		</g>
		<g>
			<g style="opacity:0.1921;">
				<path style="fill:#FF00B6;" d="M2647.607,641.162c-0.805,0-1.563-0.38-2.05-1.075L2372.29,249.525
					c-0.805-1.125-0.512-2.687,0.61-3.48c1.122-0.792,2.685-0.512,3.492,0.623l273.265,390.552c0.783,1.135,0.513,2.698-0.635,3.49
					C2648.585,641.015,2648.094,641.162,2647.607,641.162z"/>
			</g>
		</g>
		<g>
			<path style="fill:#FF0074;" d="M2536.06,787.55c-0.512,0-1.05-0.147-1.515-0.49c-1.073-0.855-1.292-2.417-0.463-3.515
				l111.522-146.4c0.855-1.098,2.418-1.318,3.515-0.475c1.1,0.83,1.295,2.405,0.465,3.503l-111.523,146.4
				C2537.572,787.232,2536.817,787.55,2536.06,787.55z"/>
		</g>
		<g>
			<g style="opacity:0.1788;">
				<path style="fill:#FF004C;" d="M2341.797,1000.903c-0.563,0-1.147-0.195-1.613-0.61c-1.05-0.878-1.172-2.465-0.292-3.515
					l305.81-359.743c0.88-1.047,2.468-1.17,3.517-0.28c1.048,0.893,1.17,2.465,0.293,3.515L2343.7,1000
					C2343.212,1000.585,2342.505,1000.903,2341.797,1000.903z"/>
			</g>
		</g>
		<g>
			<g style="opacity:0.5014;">
				<path style="fill:#FF8690;" d="M1840.65,466.065c-1.173,0-2.223-0.818-2.443-2.015c-0.267-1.355,0.61-2.66,1.953-2.93
					l363.307-71.9c1.343-0.267,2.66,0.612,2.93,1.967c0.267,1.355-0.613,2.672-1.955,2.94l-363.305,71.9
					C1840.967,466.052,1840.82,466.065,1840.65,466.065z"/>
			</g>
		</g>
		<g>
			<g style="opacity:0.8931;">
				<path style="fill:#BE0031;" d="M2341.797,1000.903c-0.587,0-1.197-0.22-1.685-0.658c-1.025-0.927-1.1-2.515-0.17-3.54
					l194.285-213.33c0.93-1.028,2.515-1.1,3.518-0.172c1.025,0.927,1.097,2.515,0.17,3.54l-194.262,213.33
					C2343.165,1000.61,2342.479,1000.903,2341.797,1000.903z"/>
			</g>
		</g>
		<g>
			<g style="opacity:0.0752;">
				<path style="fill:#91743C;" d="M1512.622,648.682c-0.367,0-0.72-0.075-1.075-0.232l-407.042-193.263
					c-1.245-0.598-1.77-2.087-1.185-3.332c0.598-1.245,2.088-1.783,3.333-1.183l407.045,193.26c1.245,0.588,1.78,2.075,1.182,3.32
					C1514.452,648.157,1513.55,648.682,1512.622,648.682z"/>
			</g>
		</g>
		<g>
			<g style="opacity:0.2178;">
				<path style="fill:#007A00;" d="M366.662,883.032c-0.17,0-0.355-0.025-0.525-0.05c-1.355-0.292-2.21-1.635-1.917-2.977
					l58.84-270.155c0.293-1.355,1.622-2.207,2.978-1.915c1.342,0.292,2.197,1.622,1.905,2.977l-58.837,270.143
					C368.847,882.227,367.822,883.032,366.662,883.032z"/>
			</g>
		</g>
		<g>
			<g style="opacity:0.3523;">
				<path style="fill:#EFA752;" d="M1512.622,648.682c-0.88,0-1.722-0.453-2.185-1.282c-0.673-1.208-0.233-2.723,0.965-3.393
					l328.025-182.617c1.223-0.685,2.735-0.245,3.42,0.962c0.657,1.21,0.22,2.735-0.977,3.408l-328.028,182.617
					C1513.452,648.585,1513.037,648.682,1512.622,648.682z"/>
			</g>
		</g>
		<g>
			<g style="opacity:0.5946;">
				<path style="fill:#FE0061;" d="M2336.597,776.66c-0.978,0-1.905-0.563-2.295-1.512c-0.563-1.258,0.023-2.735,1.292-3.285
					l311.013-135.497c1.268-0.55,2.732,0.025,3.295,1.292c0.538,1.27-0.05,2.735-1.295,3.298L2337.572,776.44
					C2337.255,776.588,2336.915,776.66,2336.597,776.66z"/>
			</g>
		</g>
		<g>
			<path style="fill:#FF4063;" d="M2752.1,848.438c-0.903,0-1.783-0.513-2.223-1.367l-104.515-207.288
				c-0.612-1.232-0.123-2.735,1.123-3.357c1.22-0.622,2.735-0.122,3.345,1.112L2754.322,844.8c0.633,1.245,0.145,2.758-1.1,3.37
				C2752.857,848.34,2752.49,848.438,2752.1,848.438z"/>
		</g>
		<g>
			<path style="fill:#008500;" d="M282.825,864.55c-0.453,0-0.903-0.145-1.318-0.39L90.625,744.177
				c-1.173-0.745-1.525-2.282-0.793-3.455c0.732-1.16,2.283-1.512,3.452-0.78l190.883,119.97c1.16,0.758,1.512,2.295,0.78,3.468
				C284.472,864.135,283.667,864.55,282.825,864.55z"/>
		</g>
		<g>
			<path style="fill:#B80046;" d="M2536.085,787.55c-0.05,0-0.098,0-0.148,0l-199.487-10.89c-1.393-0.072-2.44-1.27-2.368-2.637
				c0.073-1.378,1.293-2.503,2.637-2.367l199.485,10.912c1.393,0.075,2.443,1.245,2.37,2.638
				C2538.5,786.523,2537.402,787.55,2536.085,787.55z"/>
		</g>
		<g>
			<path style="fill:#FF33B3;" d="M2203.955,394.177c-0.708,0-1.415-0.305-1.905-0.892c-0.903-1.048-0.755-2.635,0.294-3.527
				l170.385-143.578c1.05-0.892,2.613-0.745,3.515,0.305c0.88,1.063,0.758,2.635-0.292,3.528l-170.385,143.58
				C2205.102,393.983,2204.517,394.177,2203.955,394.177z"/>
		</g>
		<g>
			<g style="opacity:0.0196;">
				<path style="fill:#FD3371;" d="M2536.085,787.55c-0.733,0-1.418-0.295-1.93-0.88L2202.05,393.285
					c-0.903-1.048-0.755-2.622,0.294-3.515c1.048-0.89,2.635-0.757,3.515,0.293l332.127,393.385c0.88,1.05,0.758,2.638-0.292,3.515
					C2537.207,787.378,2536.645,787.55,2536.085,787.55z"/>
			</g>
		</g>
		<g>
			<path style="fill:#FF4048;" d="M2752.1,848.438c-0.22,0-0.466-0.025-0.686-0.097L2535.4,787.475c-1.343-0.39-2.1-1.757-1.733-3.1
				c0.365-1.318,1.758-2.1,3.075-1.732l216.04,60.888c1.32,0.367,2.1,1.757,1.735,3.077
				C2754.2,847.705,2753.197,848.438,2752.1,848.438z"/>
		</g>
		<g>
			<path style="fill:#97001E;" d="M2341.797,1000.903c-1.343,0-2.468-1.098-2.49-2.44l-5.225-224.243
				c-0.025-1.392,1.075-2.527,2.44-2.565c1.392-0.038,2.54,1.063,2.565,2.442l5.225,224.243c0.023,1.367-1.075,2.515-2.442,2.563
				C2341.844,1000.903,2341.822,1000.903,2341.797,1000.903z"/>
		</g>
		<g>
			<g style="opacity:0.3745;">
				<path style="fill:#FF4020;" d="M2341.797,1000.903c-1.002,0-1.978-0.635-2.345-1.635c-0.488-1.295,0.173-2.735,1.465-3.223
					l410.302-152.443c1.295-0.487,2.735,0.173,3.223,1.465c0.49,1.295-0.17,2.735-1.465,3.222l-410.302,152.443
					C2342.382,1000.855,2342.09,1000.903,2341.797,1000.903z"/>
			</g>
		</g>
		<g>
			<g style="opacity:0.4898;">
				<path style="fill:#D6335E;" d="M2336.597,776.66c-1.05,0-2.028-0.66-2.37-1.685l-132.64-382.482
					c-0.44-1.305,0.242-2.723,1.538-3.172c1.317-0.465,2.735,0.23,3.197,1.538L2338.94,773.34c0.465,1.305-0.22,2.735-1.538,3.172
					C2337.135,776.612,2336.865,776.66,2336.597,776.66z"/>
			</g>
		</g>
		<g>
			<g style="opacity:0.4349;">
				<path style="fill:#FF4035;" d="M2752.1,848.438c-0.148,0-0.293-0.025-0.416-0.05l-415.528-71.775
					c-1.367-0.22-2.27-1.515-2.027-2.883c0.22-1.367,1.515-2.27,2.883-2.037l415.502,71.79c1.367,0.218,2.27,1.513,2.05,2.88
					C2754.344,847.583,2753.295,848.438,2752.1,848.438z"/>
			</g>
		</g>
		<g>
			<g style="opacity:0.1021;">
				<path style="fill:#005500;" d="M91.955,744.555c-0.243,0-0.475-0.035-0.72-0.097c-1.318-0.403-2.075-1.795-1.685-3.113
					l133.752-450.5c0.393-1.318,1.77-2.075,3.102-1.685c1.33,0.39,2.075,1.783,1.683,3.112l-133.74,450.5
					C94.03,743.86,93.03,744.555,91.955,744.555z"/>
			</g>
		</g>
		<g>
			<g style="opacity:0.3766;">
				<path style="fill:#008200;" d="M91.955,744.555c-1,0-1.94-0.597-2.33-1.585c-0.503-1.282,0.12-2.735,1.402-3.235
					l333.557-131.677c1.283-0.513,2.735,0.12,3.247,1.403c0.5,1.282-0.122,2.735-1.417,3.247L92.87,744.385
					C92.565,744.495,92.26,744.555,91.955,744.555z"/>
			</g>
		</g>
		<g>
			<g style="opacity:0.4763;">
				<path style="fill:#FF0084;" d="M2647.607,641.162c-0.682,0-1.343-0.27-1.83-0.805c-0.952-1.015-0.88-2.59,0.12-3.53
					l232.617-215.943c1.025-0.938,2.587-0.878,3.54,0.135c0.927,1.013,0.88,2.6-0.123,3.54l-232.64,215.93
					C2648.827,640.943,2648.217,641.162,2647.607,641.162z"/>
			</g>
		</g>
		<g>
			<g style="opacity:0.6964;">
				<path style="fill:#FF0056;" d="M2754.052,726.49c-0.563,0-1.097-0.185-1.563-0.55l-106.445-85.328
					c-1.098-0.867-1.27-2.44-0.39-3.515c0.855-1.075,2.44-1.257,3.515-0.39l106.445,85.325c1.075,0.868,1.245,2.443,0.39,3.518
					C2755.517,726.172,2754.785,726.49,2754.052,726.49z"/>
			</g>
		</g>
		<g>
			<g style="opacity:0.7767;">
				<path style="fill:#008C00;" d="M282.825,864.55c-0.415,0-0.83-0.122-1.22-0.34c-1.21-0.685-1.625-2.198-0.953-3.395
					l142.675-251.672c0.683-1.195,2.21-1.622,3.405-0.94c1.21,0.685,1.625,2.21,0.94,3.407L285.01,863.282
					C284.545,864.088,283.702,864.55,282.825,864.55z"/>
			</g>
		</g>
		<g>
			<g style="opacity:0.6877;">
				<path style="fill:#FF003A;" d="M2536.06,787.55c-1.075,0-2.075-0.71-2.393-1.807c-0.367-1.342,0.39-2.71,1.733-3.1l217.97-61.06
					c1.317-0.367,2.71,0.402,3.075,1.732c0.39,1.33-0.39,2.71-1.732,3.078l-217.97,61.082
					C2536.522,787.525,2536.302,787.55,2536.06,787.55z"/>
			</g>
		</g>
		<g>
			<g style="opacity:0.5654;">
				<path style="fill:#FF3F50;" d="M2685.572,698.815c-0.807,0-1.612-0.39-2.077-1.122l-37.988-57.665
					c-0.757-1.148-0.44-2.698,0.708-3.455c1.173-0.77,2.71-0.44,3.468,0.708l37.988,57.667c0.757,1.147,0.44,2.698-0.733,3.453
					C2686.522,698.682,2686.06,698.815,2685.572,698.815z"/>
			</g>
		</g>
		<g>
			<g style="opacity:0.019;">
				<path style="fill:#E60012;" d="M2341.797,1000.903c-0.808,0-1.587-0.39-2.075-1.122c-0.758-1.148-0.465-2.71,0.682-3.468
					l412.255-274.4c1.147-0.77,2.71-0.465,3.468,0.695c0.757,1.148,0.465,2.698-0.683,3.468l-412.258,274.39
					C2342.75,1000.758,2342.285,1000.903,2341.797,1000.903z"/>
			</g>
		</g>
		<g>
			<g style="opacity:0.6181;">
				<path style="fill:#FF3F34;" d="M2536.085,787.55c-0.855,0-1.685-0.415-2.175-1.222c-0.683-1.17-0.292-2.71,0.88-3.418
					l149.512-88.745c1.17-0.707,2.71-0.305,3.417,0.88c0.708,1.182,0.318,2.72-0.88,3.43l-149.488,88.733
					C2536.937,787.45,2536.5,787.55,2536.085,787.55z"/>
			</g>
		</g>
		<g>
			<g style="opacity:0.0487;">
				<path style="fill:#FF3F0C;" d="M2341.797,1000.903c-0.685,0-1.393-0.293-1.88-0.853c-0.905-1.05-0.805-2.612,0.243-3.54
					l343.775-302.065c1.025-0.915,2.613-0.818,3.515,0.22c0.905,1.038,0.807,2.625-0.218,3.528l-343.775,302.075
					C2342.969,1000.682,2342.382,1000.903,2341.797,1000.903z"/>
			</g>
		</g>
		<g>
			<g style="opacity:0.3004;">
				<path style="fill:#FF4057;" d="M2752.1,848.438c-0.246,0-0.488-0.025-0.733-0.097c-1.317-0.415-2.05-1.808-1.66-3.125
					l128.125-423.218c0.39-1.32,1.782-2.063,3.125-1.672c1.318,0.402,2.05,1.807,1.66,3.125l-128.125,423.205
					C2754.175,847.73,2753.175,848.438,2752.1,848.438z"/>
			</g>
		</g>
		<g>
			<g style="opacity:0.356;">
				<path style="fill:#E00027;" d="M2336.572,776.66c-1.245,0-2.32-0.927-2.465-2.21c-0.173-1.367,0.805-2.612,2.172-2.783
					l417.48-50.157c1.368-0.172,2.613,0.805,2.782,2.185c0.148,1.365-0.83,2.61-2.198,2.77l-417.455,50.17
					C2336.792,776.66,2336.67,776.66,2336.572,776.66z"/>
			</g>
		</g>
		<g>
			<path style="fill:#FF4029;" d="M2752.1,848.438c-0.025,0-0.025,0-0.05,0c-1.368-0.025-2.465-1.172-2.44-2.54l1.927-121.948
				c0.025-1.38,1.173-2.563,2.54-2.465c1.392,0.025,2.49,1.16,2.465,2.538l-1.952,121.95
				C2754.565,847.34,2753.467,848.438,2752.1,848.438z"/>
		</g>
		<g>
			<g style="opacity:0.6146;">
				<path style="fill:#005C00;" d="M425.5,612.878c-0.83,0-1.635-0.415-2.113-1.17L223.572,292.883
					c-0.732-1.17-0.38-2.71,0.792-3.443s2.71-0.378,3.443,0.783l199.818,318.822c0.732,1.173,0.377,2.723-0.795,3.455
					C426.415,612.758,425.965,612.878,425.5,612.878z"/>
			</g>
		</g>
		<g>
			<g style="opacity:0.472;">
				<path style="fill:#FF3F21;" d="M2336.572,776.66c-1.122,0-2.172-0.805-2.417-1.965c-0.317-1.343,0.538-2.672,1.88-2.977
					l349-77.833c1.343-0.292,2.685,0.537,2.978,1.893c0.292,1.342-0.537,2.685-1.905,2.977l-348.973,77.833
					C2336.937,776.635,2336.767,776.66,2336.572,776.66z"/>
			</g>
		</g>
		<g>
			<g style="opacity:0.8883;">
				<path style="fill:#FF8023;" d="M2752.1,848.438c-0.953,0-1.881-0.563-2.295-1.49L2683.3,697.34c-0.561-1.27,0-2.747,1.27-3.31
					c1.245-0.56,2.735,0.012,3.295,1.27l66.53,149.622c0.538,1.27-0.025,2.735-1.27,3.295
					C2752.782,848.365,2752.442,848.438,2752.1,848.438z"/>
			</g>
		</g>
		<g>
			<g style="opacity:0.7993;">
				<path style="fill:#FF0049;" d="M2754.052,726.49c-0.317,0-0.66-0.063-0.977-0.195c-1.268-0.537-1.855-2.003-1.343-3.272
					l126.172-301.27c0.538-1.27,2.002-1.867,3.295-1.33c1.27,0.525,1.857,1.99,1.32,3.273L2756.347,724.95
					C2755.957,725.915,2755.03,726.49,2754.052,726.49z"/>
			</g>
		</g>
		<g>
			<g style="opacity:0.7202;">
				<path style="fill:#FF3F44;" d="M2685.572,698.815c-0.49,0-1.002-0.145-1.442-0.463c-1.123-0.795-1.39-2.357-0.585-3.48
					l194.652-273.595c0.782-1.135,2.345-1.392,3.468-0.587c1.123,0.795,1.393,2.357,0.585,3.48l-194.628,273.595
					C2687.135,698.45,2686.352,698.815,2685.572,698.815z"/>
			</g>
		</g>
		<g>
			<path style="fill:#FF3F16;" d="M2754.052,726.49c-0.317,0-0.635-0.063-0.952-0.185l-68.458-27.672
				c-1.292-0.513-1.903-1.965-1.39-3.247c0.512-1.28,1.977-1.893,3.27-1.378l68.457,27.66c1.295,0.525,1.905,1.978,1.393,3.26
				C2755.982,725.903,2755.03,726.49,2754.052,726.49z"/>
		</g>
		<g>
			<path style="fill:#FF0059;" d="M2880.225,425.22c-0.466,0-0.928-0.122-1.343-0.39c-1.172-0.732-1.515-2.283-0.757-3.442
				l26.025-40.918c0.732-1.173,2.27-1.515,3.442-0.77c1.173,0.745,1.515,2.283,0.758,3.455l-26.025,40.905
				C2881.86,424.818,2881.055,425.22,2880.225,425.22z"/>
		</g>
		<g>
			<g style="opacity:0.5282;">
				<path style="fill:#FF002B;" d="M2754.052,726.49c-0.342,0-0.682-0.075-1.025-0.22c-1.245-0.563-1.83-2.04-1.27-3.298
					l152.198-342.175c0.563-1.267,2.05-1.83,3.32-1.267c1.245,0.56,1.807,2.038,1.27,3.295L2756.322,725
					C2755.907,725.94,2755.005,726.49,2754.052,726.49z"/>
			</g>
		</g>
		<g>
			<g style="opacity:0.5792;">
				<path style="fill:#FF3F25;" d="M2685.572,698.815c-0.49,0-1.002-0.145-1.442-0.45c-1.123-0.795-1.39-2.357-0.61-3.48
					L2904.2,380.37c0.805-1.122,2.342-1.402,3.49-0.61c1.122,0.795,1.392,2.357,0.61,3.48l-220.678,314.515
					C2687.135,698.45,2686.352,698.815,2685.572,698.815z"/>
			</g>
		</g>
		<g>
			<polygon style="opacity:0.3147;fill:#03008E;" points="535.45,1006.787 442.97,808.74 737.255,1030.665 			"/>
		</g>
		<g>
			<polygon style="opacity:0.3147;fill:#03008E;" points="535.45,1006.787 442.97,808.74 737.255,1030.665 			"/>
		</g>
		<g>
			<polygon style="opacity:0.5309;fill:#E200F6;" points="2103.417,912.085 2184.205,783.278 2332.592,977.393 			"/>
		</g>
		<g>
			<polygon style="opacity:0.5309;fill:#E200F6;" points="2103.417,912.085 2184.205,783.278 2332.592,977.393 			"/>
		</g>
		<g>
			<polygon style="opacity:0.5309;fill:#E200F6;" points="2103.417,912.085 2184.205,783.278 2332.592,977.393 			"/>
		</g>
		<g>
			<polygon style="opacity:0.0747;fill:#26394B;" points="685.057,1240.6 535.45,1006.787 737.255,1030.665 			"/>
		</g>
		<g>
			<polygon style="opacity:0.2676;fill:#79009D;" points="1330.2,903.735 1217.492,884.472 1600.537,978.662 			"/>
		</g>
		<g>
			<polygon style="opacity:0.2676;fill:#79009D;" points="1330.2,903.735 1217.492,884.472 1600.537,978.662 			"/>
		</g>
		<g>
			<polygon style="opacity:0.0083;fill:#650093;" points="1457.74,528.43 1330.2,903.735 1217.492,884.472 			"/>
		</g>
		<g>
			<polygon style="opacity:0.1362;fill:#442AFF;" points="1525.927,320.117 1282.63,333.057 1790.455,515.588 			"/>
		</g>
		<g>
			<polygon style="opacity:0.2886;fill:#3E3918;" points="685.057,1240.6 535.45,1006.787 872.412,965.477 			"/>
		</g>
		<g>
			<polygon style="opacity:0.0581;fill:#400AE5;" points="1282.63,333.057 1457.74,528.43 1790.455,515.588 			"/>
		</g>
		<g>
			<polygon style="opacity:0.3091;fill:#3B2AEC;" points="1525.927,320.117 1282.63,333.057 1457.74,528.43 			"/>
		</g>
		<g>
			<polygon style="opacity:0.378;fill:#7E16FF;" points="1962.035,312.988 1790.527,262.378 1790.455,515.588 			"/>
		</g>
		<g>
			<polygon style="opacity:0.378;fill:#7E16FF;" points="1962.035,312.988 1790.527,262.378 1790.455,515.588 			"/>
		</g>
		<g>
			<polygon style="opacity:0.1424;fill:#6120CD;" points="1525.927,320.117 1443.152,741.615 1790.455,515.588 			"/>
		</g>
		<g>
			<polygon style="opacity:0.4197;fill:#240C18;" points="742.627,957.568 535.45,1006.787 872.412,965.477 			"/>
		</g>
		<g>
			<polygon style="opacity:0.2644;fill:#5C20F5;" points="1525.927,320.117 1790.527,262.378 1457.74,528.43 			"/>
		</g>
		<g>
			<polygon style="opacity:0.3464;fill:#501451;" points="980.982,922.265 1330.2,903.735 1443.152,741.615 			"/>
		</g>
		<g>
			<polygon style="opacity:0.0611;fill:#812E2C;" points="980.982,922.265 970.85,1348.095 1330.2,903.735 			"/>
		</g>
		<g>
			<polygon style="opacity:0.2795;fill:#5D00AC;" points="1457.74,528.43 1443.152,741.615 1790.455,515.588 			"/>
		</g>
		<g>
			<polygon style="opacity:0.4046;fill:#885305;" points="685.057,1240.6 970.85,1348.095 872.412,965.477 			"/>
		</g>
		<g>
			<polygon style="opacity:0.5624;fill:#69007A;" points="1457.74,528.43 1330.2,903.735 1443.152,741.615 			"/>
		</g>
		<g>
			<polygon style="opacity:0.1222;fill:#0D3013;" points="366.662,880.542 742.627,957.568 535.45,1006.787 			"/>
		</g>
		<g>
			<polygon style="opacity:0.3928;fill:#5820B3;" points="1525.927,320.117 1457.74,528.43 1443.152,741.615 			"/>
		</g>
		<g>
			<polygon style="opacity:0.285;fill:#6420FF;" points="1525.927,320.117 1790.527,262.378 1809.887,151.538 			"/>
		</g>
		<g>
			<polygon style="opacity:0.2922;fill:#2F5A0D;" points="685.057,1240.6 742.627,957.568 980.982,922.265 			"/>
		</g>
		<g>
			<polygon style="opacity:0.2541;fill:#9557D9;" points="1840.65,463.575 1525.927,320.117 1790.455,515.588 			"/>
		</g>
		<g>
			<polygon style="opacity:0.2932;fill:#7A5F00;" points="685.057,1240.6 742.627,957.568 970.85,1348.095 			"/>
		</g>
		<g>
			<polygon style="opacity:0.2063;fill:#3C1781;" points="1014.342,636.987 1457.74,528.43 1443.152,741.615 			"/>
		</g>
		<g>
			<polygon style="opacity:0.3093;fill:#494E0D;" points="685.057,1240.6 980.982,922.265 926.537,956.128 			"/>
		</g>
		<g>
			<polygon style="opacity:0.4235;fill:#6B0023;" points="926.537,956.128 1330.2,903.735 872.412,965.477 			"/>
		</g>
		<g>
			<polygon style="opacity:0.752;fill:#232112;" points="742.627,957.568 980.982,922.265 872.412,965.477 			"/>
		</g>
		<g>
			<polygon style="opacity:0.3253;fill:#0F3833;" points="1014.342,636.987 742.627,957.568 980.982,922.265 			"/>
		</g>
		<g>
			<polygon style="opacity:0.5079;fill:#5E3905;" points="685.057,1240.6 926.537,956.128 872.412,965.477 			"/>
		</g>
		<g>
			<polygon style="opacity:0.4116;fill:#7F16FF;" points="1962.035,312.988 1790.527,262.378 1809.887,151.538 			"/>
		</g>
		<g>
			<polygon style="opacity:0.4116;fill:#7F16FF;" points="1962.035,312.988 1790.527,262.378 1809.887,151.538 			"/>
		</g>
		<g>
			<polygon style="opacity:0.2546;fill:#945300;" points="685.057,1240.6 970.85,1348.095 926.537,956.128 			"/>
		</g>
		<g>
			<polygon style="opacity:0.8554;fill:#3D1412;" points="980.982,922.265 926.537,956.128 872.412,965.477 			"/>
		</g>
		<g>
			<polygon style="opacity:0.4555;fill:#AF4DD9;" points="1840.65,463.575 1962.035,312.988 1790.455,515.588 			"/>
		</g>
		<g>
			<polygon style="opacity:0.5076;fill:#292C33;" points="1014.342,636.987 980.982,922.265 926.537,956.128 			"/>
		</g>
		<g>
			<polygon style="opacity:0.1037;fill:#8D37CF;" points="1840.65,463.575 1790.527,262.378 1457.74,528.43 			"/>
		</g>
		<g>
			<polygon style="opacity:0.1037;fill:#8D37CF;" points="1840.65,463.575 1790.527,262.378 1457.74,528.43 			"/>
		</g>
		<g>
			<polygon style="opacity:0.4485;fill:#742E0D;" points="980.982,922.265 970.85,1348.095 926.537,956.128 			"/>
		</g>
		<g>
			<polygon style="opacity:0.5647;fill:#3E172A;" points="1014.342,636.987 926.537,956.128 872.412,965.477 			"/>
		</g>
		<g>
			<polygon style="opacity:0.2238;fill:#AB6EE0;" points="1840.65,463.575 1525.927,320.117 1962.035,312.988 			"/>
		</g>
		<g>
			<polygon style="opacity:0.1877;fill:#184156;" points="1105.577,452.93 1014.342,636.987 980.982,922.265 			"/>
		</g>
		<g>
			<polygon style="opacity:0.1632;fill:#312C7F;" points="1105.577,452.93 1014.342,636.987 1457.74,528.43 			"/>
		</g>
		<g>
			<polygon style="opacity:0.8965;fill:#440C05;" points="742.627,957.568 926.537,956.128 872.412,965.477 			"/>
		</g>
		<g>
			<polygon style="opacity:0.8965;fill:#440C05;" points="742.627,957.568 926.537,956.128 872.412,965.477 			"/>
		</g>
		<g>
			<polygon style="opacity:0.2372;fill:#9557DB;" points="1840.65,463.575 1525.927,320.117 1809.887,151.538 			"/>
		</g>
		<g>
			<polygon style="opacity:0.2848;fill:#CA16EA;" points="1962.035,312.988 2374.34,248.095 2241.772,460.547 			"/>
		</g>
		<g>
			<polygon style="opacity:0.554;fill:#B04DDA;" points="1840.65,463.575 1962.035,312.988 1809.887,151.538 			"/>
		</g>
		<g>
			<polygon style="opacity:0.0502;fill:#D359B0;" points="1840.65,463.575 2203.955,391.675 1790.455,515.588 			"/>
		</g>
		<g>
			<polygon style="opacity:0.3275;fill:#D938CF;" points="2203.955,391.675 1962.035,312.988 2241.772,460.547 			"/>
		</g>
		<g>
			<polygon style="opacity:0.1767;fill:#FF00C4;" points="2647.607,638.66 2374.34,248.095 2241.772,460.547 			"/>
		</g>
		<g>
			<polygon style="opacity:0.0674;fill:#7C4D5E;" points="1512.622,646.193 1105.577,452.93 1457.74,528.43 			"/>
		</g>
		<g>
			<polygon style="opacity:0.135;fill:#BB6F6D;" points="1512.622,646.193 1840.65,463.575 1457.74,528.43 			"/>
		</g>
		<g>
			<polygon style="opacity:0.325;fill:#EF59AA;" points="1840.65,463.575 2203.955,391.675 2241.772,460.547 			"/>
		</g>
		<g>
			<polygon style="opacity:0.1129;fill:#EA008B;" points="2647.607,638.66 2241.772,460.547 2336.597,774.157 			"/>
		</g>
		<g>
			<polygon style="opacity:0.4572;fill:#C80030;" points="2536.085,785.057 2341.797,998.388 2484.155,1108.715 			"/>
		</g>
		<g>
			<polygon style="opacity:0.5818;fill:#EE22C2;" points="2203.955,391.675 2374.34,248.095 2241.772,460.547 			"/>
		</g>
		<g>
			<polygon style="opacity:0.5818;fill:#EE22C2;" points="2203.955,391.675 2374.34,248.095 2241.772,460.547 			"/>
		</g>
		<g>
			<polygon style="opacity:0.2325;fill:#007C00;" points="91.955,742.052 282.837,862.035 366.662,880.542 			"/>
		</g>
		<g>
			<polygon style="opacity:0.2325;fill:#007C00;" points="91.955,742.052 282.837,862.035 366.662,880.542 			"/>
		</g>
		<g>
			<polygon style="opacity:0.2325;fill:#007C00;" points="91.955,742.052 282.837,862.035 366.662,880.542 			"/>
		</g>
		<g>
			<polygon style="opacity:0.3215;fill:#AE0024;" points="2336.597,774.157 2341.797,998.388 2484.155,1108.715 			"/>
		</g>
		<g>
			<polygon style="opacity:0.1289;fill:#FF2B33;" points="2752.1,845.922 2336.597,774.157 2484.155,1108.715 			"/>
		</g>
		<g>
			<polygon style="opacity:0.1002;fill:#007A00;" points="425.5,610.375 91.955,742.052 366.662,880.542 			"/>
		</g>
		<g>
			<polygon style="opacity:0.6195;fill:#F4005E;" points="2647.607,638.66 2536.085,785.057 2336.597,774.157 			"/>
		</g>
		<g>
			<polygon style="opacity:0.7587;fill:#FF2B60;" points="2752.1,845.922 2647.607,638.66 2536.085,785.057 			"/>
		</g>
		<g>
			<polygon style="opacity:0.0754;fill:#E05971;" points="1840.65,463.575 2203.955,391.675 2336.597,774.157 			"/>
		</g>
		<g>
			<polygon style="opacity:0.5057;fill:#AF0031;" points="2536.085,785.057 2336.597,774.157 2341.797,998.388 			"/>
		</g>
		<g>
			<polygon style="opacity:0.4207;fill:#FF2B33;" points="2752.1,845.922 2536.085,785.057 2341.797,998.388 			"/>
		</g>
		<g>
			<polygon style="opacity:0.4207;fill:#FF2B33;" points="2752.1,845.922 2536.085,785.057 2341.797,998.388 			"/>
		</g>
		<g>
			<polygon style="opacity:0.1562;fill:#FF226F;" points="2203.955,391.675 2647.607,638.66 2336.597,774.157 			"/>
		</g>
		<g>
			<polygon style="opacity:0.2345;fill:#EF2B26;" points="2752.1,845.922 2336.597,774.157 2341.797,998.388 			"/>
		</g>
		<g>
			<polygon style="opacity:0.2625;fill:#FF004A;" points="2647.607,638.66 2754.052,723.987 2336.597,774.157 			"/>
		</g>
		<g>
			<polygon style="opacity:0.6962;fill:#FF2B39;" points="2752.1,845.922 2754.052,723.987 2536.085,785.057 			"/>
		</g>
		<g>
			<polygon style="opacity:0.5176;fill:#FF5548;" points="2685.572,696.313 2752.1,845.922 2647.607,638.66 			"/>
		</g>
		<g>
			<polygon style="opacity:0.0757;fill:#006D00;" points="225.695,291.552 425.5,610.375 282.837,862.035 			"/>
		</g>
		<g>
			<polygon style="opacity:0.2996;fill:#FF5529;" points="2685.572,696.313 2752.1,845.922 2336.597,774.157 			"/>
		</g>
		<g>
			<polygon style="opacity:0.4349;fill:#FF0061;" points="2880.225,422.717 2647.607,638.66 2754.052,723.987 			"/>
		</g>
		<g>
			<polygon style="opacity:0.3818;fill:#FF2A5D;" points="2685.572,696.313 2880.225,422.717 2647.607,638.66 			"/>
		</g>
		<g>
			<polygon style="opacity:0.3818;fill:#FF2A5D;" points="2685.572,696.313 2880.225,422.717 2647.607,638.66 			"/>
		</g>
		<g>
			<polygon style="opacity:0.2807;fill:#FF2A4B;" points="2685.572,696.313 2880.225,422.717 2536.085,785.057 			"/>
		</g>
		<g>
			<polygon style="opacity:0.7347;fill:#FF2A2C;" points="2685.572,696.313 2754.052,723.987 2536.085,785.057 			"/>
		</g>
		<g>
			<polygon style="opacity:0.7315;fill:#FF5521;" points="2685.572,696.313 2752.1,845.922 2754.052,723.987 			"/>
		</g>
		<g>
			<polygon style="opacity:0.7315;fill:#FF5521;" points="2685.572,696.313 2752.1,845.922 2754.052,723.987 			"/>
		</g>
		<g>
			<polygon style="opacity:0.0507;fill:#FF003A;" points="2906.25,381.813 2754.052,723.987 2536.085,785.057 			"/>
		</g>
		<g>
			<polygon style="opacity:0.1097;fill:#FF2A49;" points="2685.572,696.313 2906.25,381.813 2647.607,638.66 			"/>
		</g>
		<g>
			<polygon style="opacity:0.562;fill:#FF0045;" points="2906.25,381.813 2880.225,422.717 2754.052,723.987 			"/>
		</g>
		<g>
			<polygon style="opacity:0.5651;fill:#FF2A41;" points="2685.572,696.313 2906.25,381.813 2880.225,422.717 			"/>
		</g>
	</g>
</g>
</svg>
